<?xml version="1.0" encoding="us-ascii" standalone="no"?><svg xmlns="http://www.w3.org/2000/svg" xmlns:xlink="http://www.w3.org/1999/xlink" contentStyleType="text/css" height="1149px" preserveAspectRatio="none" style="width:1097px;height:1149px;background:#FFFFFF;" version="1.1" viewBox="0 0 1097 1149" width="1097px" zoomAndPan="magnify"><defs/><g><text fill="#000000" font-family="sans-serif" font-size="14" font-weight="bold" lengthAdjust="spacing" textLength="205" x="442.25" y="28.5352">Seq 1. Boot-up Home screen</text><rect fill="#FFFFFF" height="407.0371" style="stroke:#181818;stroke-width:1.0;" width="10" x="231.5" y="193.5977"/><rect fill="#FFFFFF" height="377.7266" style="stroke:#181818;stroke-width:1.0;" width="10" x="231.5" y="673.2559"/><rect fill="#FFFFFF" height="377.7266" style="stroke:#181818;stroke-width:1.0;" width="10" x="471.5" y="222.9082"/><rect fill="#FFFFFF" height="377.7266" style="stroke:#181818;stroke-width:1.0;" width="10" x="471.5" y="673.2559"/><rect fill="#FFFFFF" height="247.4844" style="stroke:#181818;stroke-width:1.0;" width="10" x="695.5" y="252.2188"/><rect fill="#FFFFFF" height="247.4844" style="stroke:#181818;stroke-width:1.0;" width="10" x="695.5" y="702.5664"/><line style="stroke:#181818;stroke-width:0.5;stroke-dasharray:5.0,5.0;" x1="23" x2="23" y1="118.9766" y2="1068.9824"/><line style="stroke:#181818;stroke-width:0.5;stroke-dasharray:5.0,5.0;" x1="236.5" x2="236.5" y1="118.9766" y2="1068.9824"/><line style="stroke:#181818;stroke-width:0.5;stroke-dasharray:5.0,5.0;" x1="476.5" x2="476.5" y1="118.9766" y2="1068.9824"/><line style="stroke:#181818;stroke-width:0.5;stroke-dasharray:5.0,5.0;" x1="700" x2="700" y1="118.9766" y2="1068.9824"/><line style="stroke:#181818;stroke-width:0.5;stroke-dasharray:5.0,5.0;" x1="897.5" x2="897.5" y1="118.9766" y2="1068.9824"/><line style="stroke:#181818;stroke-width:0.5;stroke-dasharray:5.0,5.0;" x1="1036.5" x2="1036.5" y1="118.9766" y2="1068.9824"/><text fill="#000000" font-family="sans-serif" font-size="14" lengthAdjust="spacing" textLength="31" x="5" y="116.0234">User</text><ellipse cx="23.5" cy="50.9883" fill="#E2E2F0" rx="8" ry="8" style="stroke:#181818;stroke-width:0.5;"/><path d="M23.5,58.9883 L23.5,85.9883 M10.5,66.9883 L36.5,66.9883 M23.5,85.9883 L10.5,100.9883 M23.5,85.9883 L36.5,100.9883 " fill="none" style="stroke:#181818;stroke-width:0.5;"/><text fill="#000000" font-family="sans-serif" font-size="14" lengthAdjust="spacing" textLength="31" x="5" y="1081.5176">User</text><ellipse cx="23.5" cy="1092.9707" fill="#E2E2F0" rx="8" ry="8" style="stroke:#181818;stroke-width:0.5;"/><path d="M23.5,1100.9707 L23.5,1127.9707 M10.5,1108.9707 L36.5,1108.9707 M23.5,1127.9707 L10.5,1142.9707 M23.5,1127.9707 L36.5,1142.9707 " fill="none" style="stroke:#181818;stroke-width:0.5;"/><rect fill="#E2E2F0" height="30.4883" rx="2.5" ry="2.5" style="stroke:#181818;stroke-width:0.5;" width="100" x="186.5" y="87.4883"/><text fill="#000000" font-family="sans-serif" font-size="14" lengthAdjust="spacing" textLength="86" x="193.5" y="108.0234">HomeScreen</text><rect fill="#E2E2F0" height="30.4883" rx="2.5" ry="2.5" style="stroke:#181818;stroke-width:0.5;" width="100" x="186.5" y="1067.9824"/><text fill="#000000" font-family="sans-serif" font-size="14" lengthAdjust="spacing" textLength="86" x="193.5" y="1088.5176">HomeScreen</text><rect fill="#E2E2F0" height="30.4883" rx="2.5" ry="2.5" style="stroke:#181818;stroke-width:0.5;" width="72" x="440.5" y="87.4883"/><text fill="#000000" font-family="sans-serif" font-size="14" lengthAdjust="spacing" textLength="58" x="447.5" y="108.0234">UseCase</text><rect fill="#E2E2F0" height="30.4883" rx="2.5" ry="2.5" style="stroke:#181818;stroke-width:0.5;" width="72" x="440.5" y="1067.9824"/><text fill="#000000" font-family="sans-serif" font-size="14" lengthAdjust="spacing" textLength="58" x="447.5" y="1088.5176">UseCase</text><rect fill="#E2E2F0" height="30.4883" rx="2.5" ry="2.5" style="stroke:#181818;stroke-width:0.5;" width="87" x="657" y="87.4883"/><text fill="#000000" font-family="sans-serif" font-size="14" lengthAdjust="spacing" textLength="73" x="664" y="108.0234">Repository</text><rect fill="#E2E2F0" height="30.4883" rx="2.5" ry="2.5" style="stroke:#181818;stroke-width:0.5;" width="87" x="657" y="1067.9824"/><text fill="#000000" font-family="sans-serif" font-size="14" lengthAdjust="spacing" textLength="73" x="664" y="1088.5176">Repository</text><rect fill="#E2E2F0" height="30.4883" rx="2.5" ry="2.5" style="stroke:#181818;stroke-width:0.5;" width="74" x="860.5" y="87.4883"/><text fill="#000000" font-family="sans-serif" font-size="14" lengthAdjust="spacing" textLength="60" x="867.5" y="108.0234">Apiclient</text><rect fill="#E2E2F0" height="30.4883" rx="2.5" ry="2.5" style="stroke:#181818;stroke-width:0.5;" width="74" x="860.5" y="1067.9824"/><text fill="#000000" font-family="sans-serif" font-size="14" lengthAdjust="spacing" textLength="60" x="867.5" y="1088.5176">Apiclient</text><rect fill="#E2E2F0" height="30.4883" rx="2.5" ry="2.5" style="stroke:#181818;stroke-width:0.5;" width="98" x="987.5" y="87.4883"/><text fill="#000000" font-family="sans-serif" font-size="14" lengthAdjust="spacing" textLength="84" x="994.5" y="108.0234">TheMealsDb</text><rect fill="#E2E2F0" height="30.4883" rx="2.5" ry="2.5" style="stroke:#181818;stroke-width:0.5;" width="98" x="987.5" y="1067.9824"/><text fill="#000000" font-family="sans-serif" font-size="14" lengthAdjust="spacing" textLength="84" x="994.5" y="1088.5176">TheMealsDb</text><rect fill="#FFFFFF" height="407.0371" style="stroke:#181818;stroke-width:1.0;" width="10" x="231.5" y="193.5977"/><rect fill="#FFFFFF" height="377.7266" style="stroke:#181818;stroke-width:1.0;" width="10" x="231.5" y="673.2559"/><rect fill="#FFFFFF" height="377.7266" style="stroke:#181818;stroke-width:1.0;" width="10" x="471.5" y="222.9082"/><rect fill="#FFFFFF" height="377.7266" style="stroke:#181818;stroke-width:1.0;" width="10" x="471.5" y="673.2559"/><rect fill="#FFFFFF" height="247.4844" style="stroke:#181818;stroke-width:1.0;" width="10" x="695.5" y="252.2188"/><rect fill="#FFFFFF" height="247.4844" style="stroke:#181818;stroke-width:1.0;" width="10" x="695.5" y="702.5664"/><rect fill="#EEEEEE" height="3" style="stroke:#EEEEEE;stroke-width:1.0;" width="1090.5" x="0" y="149.6318"/><line style="stroke:#000000;stroke-width:1.0;" x1="0" x2="1090.5" y1="149.6318" y2="149.6318"/><line style="stroke:#000000;stroke-width:1.0;" x1="0" x2="1090.5" y1="152.6318" y2="152.6318"/><rect fill="#EEEEEE" height="23.3105" style="stroke:#000000;stroke-width:2.0;" width="122" x="484.25" y="138.9766"/><text fill="#000000" font-family="sans-serif" font-size="13" font-weight="bold" lengthAdjust="spacing" textLength="104" x="490.25" y="155.5449">Load Top Panel</text><polygon fill="#181818" points="219.5,189.5977,229.5,193.5977,219.5,197.5977,223.5,193.5977" style="stroke:#181818;stroke-width:1.0;"/><line style="stroke:#181818;stroke-width:1.0;" x1="23.5" x2="225.5" y1="193.5977" y2="193.5977"/><text fill="#000000" font-family="sans-serif" font-size="13" lengthAdjust="spacing" textLength="115" x="30.5" y="188.8555">Open HomeScreen</text><polygon fill="#181818" points="459.5,218.9082,469.5,222.9082,459.5,226.9082,463.5,222.9082" style="stroke:#181818;stroke-width:1.0;"/><line style="stroke:#181818;stroke-width:1.0;" x1="241.5" x2="465.5" y1="222.9082" y2="222.9082"/><text fill="#000000" font-family="sans-serif" font-size="13" lengthAdjust="spacing" textLength="175" x="248.5" y="218.166">Watch panelRecipesProvider</text><line style="stroke:#181818;stroke-width:1.0;" x1="693.5" x2="683.5" y1="252.2188" y2="248.2188"/><line style="stroke:#181818;stroke-width:1.0;" x1="693.5" x2="683.5" y1="252.2188" y2="256.2188"/><line style="stroke:#181818;stroke-width:1.0;" x1="481.5" x2="694.5" y1="252.2188" y2="252.2188"/><text fill="#000000" font-family="sans-serif" font-size="13" lengthAdjust="spacing" textLength="81" x="488.5" y="247.4766">Request data</text><polygon fill="#181818" points="492.5,277.5293,482.5,281.5293,492.5,285.5293,488.5,281.5293" style="stroke:#181818;stroke-width:1.0;"/><line style="stroke:#181818;stroke-width:1.0;stroke-dasharray:2.0,2.0;" x1="486.5" x2="694.5" y1="281.5293" y2="281.5293"/><text fill="#000000" font-family="sans-serif" font-size="13" lengthAdjust="spacing" textLength="176" x="498.5" y="276.7871">Return AsyncValue.loading()</text><polygon fill="#181818" points="252.5,306.8398,242.5,310.8398,252.5,314.8398,248.5,310.8398" style="stroke:#181818;stroke-width:1.0;"/><line style="stroke:#181818;stroke-width:1.0;stroke-dasharray:2.0,2.0;" x1="246.5" x2="470.5" y1="310.8398" y2="310.8398"/><text fill="#000000" font-family="sans-serif" font-size="13" lengthAdjust="spacing" textLength="125" x="258.5" y="306.0977">Notify loading state</text><line style="stroke:#181818;stroke-width:1.0;" x1="241.5" x2="283.5" y1="340.1504" y2="340.1504"/><line style="stroke:#181818;stroke-width:1.0;" x1="283.5" x2="283.5" y1="340.1504" y2="353.1504"/><line style="stroke:#181818;stroke-width:1.0;" x1="242.5" x2="283.5" y1="353.1504" y2="353.1504"/><polygon fill="#181818" points="252.5,349.1504,242.5,353.1504,252.5,357.1504,248.5,353.1504" style="stroke:#181818;stroke-width:1.0;"/><text fill="#000000" font-family="sans-serif" font-size="13" lengthAdjust="spacing" textLength="196" x="248.5" y="335.4082">Show CircularProgressIndicator</text><polygon fill="#181818" points="885.5,378.4609,895.5,382.4609,885.5,386.4609,889.5,382.4609" style="stroke:#181818;stroke-width:1.0;"/><line style="stroke:#181818;stroke-width:1.0;stroke-dasharray:2.0,2.0;" x1="705.5" x2="891.5" y1="382.4609" y2="382.4609"/><text fill="#000000" font-family="sans-serif" font-size="13" lengthAdjust="spacing" textLength="168" x="712.5" y="377.7188">Fetch data asynchronously</text><polygon fill="#181818" points="1024.5,407.7715,1034.5,411.7715,1024.5,415.7715,1028.5,411.7715" style="stroke:#181818;stroke-width:1.0;"/><line style="stroke:#181818;stroke-width:1.0;" x1="897.5" x2="1030.5" y1="411.7715" y2="411.7715"/><text fill="#000000" font-family="sans-serif" font-size="13" lengthAdjust="spacing" textLength="115" x="904.5" y="407.0293">HTTP GET Request</text><polygon fill="#181818" points="908.5,437.082,898.5,441.082,908.5,445.082,904.5,441.082" style="stroke:#181818;stroke-width:1.0;"/><line style="stroke:#181818;stroke-width:1.0;stroke-dasharray:2.0,2.0;" x1="902.5" x2="1035.5" y1="441.082" y2="441.082"/><text fill="#000000" font-family="sans-serif" font-size="13" lengthAdjust="spacing" textLength="60" x="914.5" y="436.3398">Response</text><polygon fill="#181818" points="716.5,466.3926,706.5,470.3926,716.5,474.3926,712.5,470.3926" style="stroke:#181818;stroke-width:1.0;"/><line style="stroke:#181818;stroke-width:1.0;stroke-dasharray:2.0,2.0;" x1="710.5" x2="896.5" y1="470.3926" y2="470.3926"/><text fill="#000000" font-family="sans-serif" font-size="13" lengthAdjust="spacing" textLength="72" x="722.5" y="465.6504">Return data</text><polygon fill="#181818" points="492.5,495.7031,482.5,499.7031,492.5,503.7031,488.5,499.7031" style="stroke:#181818;stroke-width:1.0;"/><line style="stroke:#181818;stroke-width:1.0;stroke-dasharray:2.0,2.0;" x1="486.5" x2="699.5" y1="499.7031" y2="499.7031"/><text fill="#000000" font-family="sans-serif" font-size="13" lengthAdjust="spacing" textLength="190" x="498.5" y="494.9609">Notify success state with data</text><polygon fill="#181818" points="252.5,525.0137,242.5,529.0137,252.5,533.0137,248.5,529.0137" style="stroke:#181818;stroke-width:1.0;"/><line style="stroke:#181818;stroke-width:1.0;stroke-dasharray:2.0,2.0;" x1="246.5" x2="470.5" y1="529.0137" y2="529.0137"/><text fill="#000000" font-family="sans-serif" font-size="13" lengthAdjust="spacing" textLength="127" x="258.5" y="524.2715">notify data available</text><line style="stroke:#181818;stroke-width:1.0;" x1="241.5" x2="283.5" y1="558.3242" y2="558.3242"/><line style="stroke:#181818;stroke-width:1.0;" x1="283.5" x2="283.5" y1="558.3242" y2="571.3242"/><line style="stroke:#181818;stroke-width:1.0;" x1="242.5" x2="283.5" y1="571.3242" y2="571.3242"/><polygon fill="#181818" points="252.5,567.3242,242.5,571.3242,252.5,575.3242,248.5,571.3242" style="stroke:#181818;stroke-width:1.0;"/><text fill="#000000" font-family="sans-serif" font-size="13" lengthAdjust="spacing" textLength="91" x="248.5" y="553.582">rebuild Widget</text><polygon fill="#181818" points="34.5,596.6348,24.5,600.6348,34.5,604.6348,30.5,600.6348" style="stroke:#181818;stroke-width:1.0;"/><line style="stroke:#181818;stroke-width:1.0;stroke-dasharray:2.0,2.0;" x1="28.5" x2="235.5" y1="600.6348" y2="600.6348"/><text fill="#000000" font-family="sans-serif" font-size="13" lengthAdjust="spacing" textLength="159" x="40.5" y="595.8926">Display data on TopPanel</text><rect fill="#EEEEEE" height="3" style="stroke:#EEEEEE;stroke-width:1.0;" width="1090.5" x="0" y="629.29"/><line style="stroke:#000000;stroke-width:1.0;" x1="0" x2="1090.5" y1="629.29" y2="629.29"/><line style="stroke:#000000;stroke-width:1.0;" x1="0" x2="1090.5" y1="632.29" y2="632.29"/><rect fill="#EEEEEE" height="23.3105" style="stroke:#000000;stroke-width:2.0;" width="127" x="481.75" y="618.6348"/><text fill="#000000" font-family="sans-serif" font-size="13" font-weight="bold" lengthAdjust="spacing" textLength="109" x="487.75" y="635.2031">Load Categories</text><polygon fill="#181818" points="459.5,669.2559,469.5,673.2559,459.5,677.2559,463.5,673.2559" style="stroke:#181818;stroke-width:1.0;"/><line style="stroke:#181818;stroke-width:1.0;" x1="241.5" x2="465.5" y1="673.2559" y2="673.2559"/><text fill="#000000" font-family="sans-serif" font-size="13" lengthAdjust="spacing" textLength="216" x="248.5" y="668.5137">Watch allRecipeCategoriesProvider</text><line style="stroke:#181818;stroke-width:1.0;" x1="693.5" x2="683.5" y1="702.5664" y2="698.5664"/><line style="stroke:#181818;stroke-width:1.0;" x1="693.5" x2="683.5" y1="702.5664" y2="706.5664"/><line style="stroke:#181818;stroke-width:1.0;" x1="481.5" x2="694.5" y1="702.5664" y2="702.5664"/><text fill="#000000" font-family="sans-serif" font-size="13" lengthAdjust="spacing" textLength="81" x="488.5" y="697.8242">Request data</text><polygon fill="#181818" points="492.5,727.877,482.5,731.877,492.5,735.877,488.5,731.877" style="stroke:#181818;stroke-width:1.0;"/><line style="stroke:#181818;stroke-width:1.0;stroke-dasharray:2.0,2.0;" x1="486.5" x2="694.5" y1="731.877" y2="731.877"/><text fill="#000000" font-family="sans-serif" font-size="13" lengthAdjust="spacing" textLength="176" x="498.5" y="727.1348">Return AsyncValue.loading()</text><polygon fill="#181818" points="252.5,757.1875,242.5,761.1875,252.5,765.1875,248.5,761.1875" style="stroke:#181818;stroke-width:1.0;"/><line style="stroke:#181818;stroke-width:1.0;stroke-dasharray:2.0,2.0;" x1="246.5" x2="470.5" y1="761.1875" y2="761.1875"/><text fill="#000000" font-family="sans-serif" font-size="13" lengthAdjust="spacing" textLength="125" x="258.5" y="756.4453">Notify loading state</text><line style="stroke:#181818;stroke-width:1.0;" x1="241.5" x2="283.5" y1="790.498" y2="790.498"/><line style="stroke:#181818;stroke-width:1.0;" x1="283.5" x2="283.5" y1="790.498" y2="803.498"/><line style="stroke:#181818;stroke-width:1.0;" x1="242.5" x2="283.5" y1="803.498" y2="803.498"/><polygon fill="#181818" points="252.5,799.498,242.5,803.498,252.5,807.498,248.5,803.498" style="stroke:#181818;stroke-width:1.0;"/><text fill="#000000" font-family="sans-serif" font-size="13" lengthAdjust="spacing" textLength="196" x="248.5" y="785.7559">Show CircularProgressIndicator</text><polygon fill="#181818" points="885.5,828.8086,895.5,832.8086,885.5,836.8086,889.5,832.8086" style="stroke:#181818;stroke-width:1.0;"/><line style="stroke:#181818;stroke-width:1.0;stroke-dasharray:2.0,2.0;" x1="705.5" x2="891.5" y1="832.8086" y2="832.8086"/><text fill="#000000" font-family="sans-serif" font-size="13" lengthAdjust="spacing" textLength="168" x="712.5" y="828.0664">Fetch data asynchronously</text><polygon fill="#181818" points="1024.5,858.1191,1034.5,862.1191,1024.5,866.1191,1028.5,862.1191" style="stroke:#181818;stroke-width:1.0;"/><line style="stroke:#181818;stroke-width:1.0;" x1="897.5" x2="1030.5" y1="862.1191" y2="862.1191"/><text fill="#000000" font-family="sans-serif" font-size="13" lengthAdjust="spacing" textLength="115" x="904.5" y="857.377">HTTP GET Request</text><polygon fill="#181818" points="908.5,887.4297,898.5,891.4297,908.5,895.4297,904.5,891.4297" style="stroke:#181818;stroke-width:1.0;"/><line style="stroke:#181818;stroke-width:1.0;stroke-dasharray:2.0,2.0;" x1="902.5" x2="1035.5" y1="891.4297" y2="891.4297"/><text fill="#000000" font-family="sans-serif" font-size="13" lengthAdjust="spacing" textLength="60" x="914.5" y="886.6875">Response</text><polygon fill="#181818" points="716.5,916.7402,706.5,920.7402,716.5,924.7402,712.5,920.7402" style="stroke:#181818;stroke-width:1.0;"/><line style="stroke:#181818;stroke-width:1.0;stroke-dasharray:2.0,2.0;" x1="710.5" x2="896.5" y1="920.7402" y2="920.7402"/><text fill="#000000" font-family="sans-serif" font-size="13" lengthAdjust="spacing" textLength="72" x="722.5" y="915.998">Return data</text><polygon fill="#181818" points="492.5,946.0508,482.5,950.0508,492.5,954.0508,488.5,950.0508" style="stroke:#181818;stroke-width:1.0;"/><line style="stroke:#181818;stroke-width:1.0;stroke-dasharray:2.0,2.0;" x1="486.5" x2="699.5" y1="950.0508" y2="950.0508"/><text fill="#000000" font-family="sans-serif" font-size="13" lengthAdjust="spacing" textLength="190" x="498.5" y="945.3086">Notify success state with data</text><polygon fill="#181818" points="252.5,975.3613,242.5,979.3613,252.5,983.3613,248.5,979.3613" style="stroke:#181818;stroke-width:1.0;"/><line style="stroke:#181818;stroke-width:1.0;stroke-dasharray:2.0,2.0;" x1="246.5" x2="470.5" y1="979.3613" y2="979.3613"/><text fill="#000000" font-family="sans-serif" font-size="13" lengthAdjust="spacing" textLength="127" x="258.5" y="974.6191">notify data available</text><line style="stroke:#181818;stroke-width:1.0;" x1="241.5" x2="283.5" y1="1008.6719" y2="1008.6719"/><line style="stroke:#181818;stroke-width:1.0;" x1="283.5" x2="283.5" y1="1008.6719" y2="1021.6719"/><line style="stroke:#181818;stroke-width:1.0;" x1="242.5" x2="283.5" y1="1021.6719" y2="1021.6719"/><polygon fill="#181818" points="252.5,1017.6719,242.5,1021.6719,252.5,1025.6719,248.5,1021.6719" style="stroke:#181818;stroke-width:1.0;"/><text fill="#000000" font-family="sans-serif" font-size="13" lengthAdjust="spacing" textLength="91" x="248.5" y="1003.9297">rebuild Widget</text><polygon fill="#181818" points="34.5,1046.9824,24.5,1050.9824,34.5,1054.9824,30.5,1050.9824" style="stroke:#181818;stroke-width:1.0;"/><line style="stroke:#181818;stroke-width:1.0;stroke-dasharray:2.0,2.0;" x1="28.5" x2="235.5" y1="1050.9824" y2="1050.9824"/><text fill="#000000" font-family="sans-serif" font-size="13" lengthAdjust="spacing" textLength="184" x="40.5" y="1046.2402">Display data on CategoryGrid</text><!--SRC=[xLDDRzim3BtxL_3O7LoWLsCfqAPTEs0VGUAsPqRcOWAQf4foYlpxIh5ZIq4JODUXEbaq7_dugEVPIu8LlSBL9TngxSlEmAF-I-249L852gyjF3coXK7hMR11vVSfgpuZ3OUyEJhAOaiosd6eiil2DuQ5P58-YzOj_IIKxcvTp6RmGsC3jJQmG4KIPhCY4e7oEkbVmMz3AYKKEVCMFQL126UwnX83rmfUq8iMJ6onfC23tCBgBJTXv8WQgns6W-4Czr3hEXco2j-l7JaF3NeSaySgYHoGd2aCPKfkIRwp2cxSJebdb1rToY0Agyt5bmm_aZaIvvVs_6S70mYS3nmoO2vA2bsr-WtcR4KdqGP9DfQS-wuQ5XXudcC_xhQ2RnJ5ZL80nXbQgvNkdCod7m6Hm_G6AdYiwmKytDS7KJFKb7ZSTKdEQENeL9FoU6DxaRE5fQ9-BSiiVn3LTK84INfHuOrzcvTewDpMJsrCzSLxoRR84jTo6kJqkYojEvODl72p8VyXe7zOje8xTaRYq4IhwB6znOeZseSdduHIenqiEWy_DjeokUZHipP3EPXimenkE-NRJmT-El1_T-1WXzs3vUQVNFWE]--></g></svg>