<?xml version="1.0" encoding="us-ascii" standalone="no"?><svg xmlns="http://www.w3.org/2000/svg" xmlns:xlink="http://www.w3.org/1999/xlink" contentStyleType="text/css" height="1019px" preserveAspectRatio="none" style="width:1220px;height:1019px;background:#FFFFFF;" version="1.1" viewBox="0 0 1220 1019" width="1220px" zoomAndPan="magnify"><defs/><g><text fill="#000000" font-family="sans-serif" font-size="14" font-weight="bold" lengthAdjust="spacing" textLength="217" x="497.75" y="28.5352">Seq 4. Read details of a recipe</text><rect fill="#FFFFFF" height="407.0371" style="stroke:#181818;stroke-width:1.0;" width="10" x="301.5" y="352.8398"/><rect fill="#FFFFFF" height="377.7266" style="stroke:#181818;stroke-width:1.0;" width="10" x="558.5" y="382.1504"/><rect fill="#FFFFFF" height="247.4844" style="stroke:#181818;stroke-width:1.0;" width="10" x="782.5" y="411.4609"/><line style="stroke:#181818;stroke-width:0.5;stroke-dasharray:5.0,5.0;" x1="23" x2="23" y1="118.9766" y2="938.4297"/><line style="stroke:#181818;stroke-width:0.5;stroke-dasharray:5.0,5.0;" x1="187" x2="187" y1="118.9766" y2="938.4297"/><line style="stroke:#181818;stroke-width:0.5;stroke-dasharray:5.0,5.0;" x1="306" x2="306" y1="118.9766" y2="938.4297"/><line style="stroke:#181818;stroke-width:0.5;stroke-dasharray:5.0,5.0;" x1="563.5" x2="563.5" y1="118.9766" y2="938.4297"/><line style="stroke:#181818;stroke-width:0.5;stroke-dasharray:5.0,5.0;" x1="787" x2="787" y1="118.9766" y2="938.4297"/><line style="stroke:#181818;stroke-width:0.5;stroke-dasharray:5.0,5.0;" x1="984.5" x2="984.5" y1="118.9766" y2="938.4297"/><line style="stroke:#181818;stroke-width:0.5;stroke-dasharray:5.0,5.0;" x1="1065.5" x2="1065.5" y1="118.9766" y2="938.4297"/><line style="stroke:#181818;stroke-width:0.5;stroke-dasharray:5.0,5.0;" x1="1159.5" x2="1159.5" y1="118.9766" y2="938.4297"/><text fill="#000000" font-family="sans-serif" font-size="14" lengthAdjust="spacing" textLength="31" x="5" y="116.0234">User</text><ellipse cx="23.5" cy="50.9883" fill="#E2E2F0" rx="8" ry="8" style="stroke:#181818;stroke-width:0.5;"/><path d="M23.5,58.9883 L23.5,85.9883 M10.5,66.9883 L36.5,66.9883 M23.5,85.9883 L10.5,100.9883 M23.5,85.9883 L36.5,100.9883 " fill="none" style="stroke:#181818;stroke-width:0.5;"/><text fill="#000000" font-family="sans-serif" font-size="14" lengthAdjust="spacing" textLength="31" x="5" y="950.9648">User</text><ellipse cx="23.5" cy="962.418" fill="#E2E2F0" rx="8" ry="8" style="stroke:#181818;stroke-width:0.5;"/><path d="M23.5,970.418 L23.5,997.418 M10.5,978.418 L36.5,978.418 M23.5,997.418 L10.5,1012.418 M23.5,997.418 L36.5,1012.418 " fill="none" style="stroke:#181818;stroke-width:0.5;"/><text fill="#000000" font-family="sans-serif" font-size="14" lengthAdjust="spacing" textLength="119" x="125" y="116.0234">RecipeThumbnail</text><ellipse cx="187.5" cy="86.4883" fill="#E2E2F0" rx="12" ry="12" style="stroke:#181818;stroke-width:0.5;"/><polygon fill="#181818" points="183.5,74.4883,189.5,69.4883,187.5,74.4883,189.5,79.4883,183.5,74.4883" style="stroke:#181818;stroke-width:1.0;"/><text fill="#000000" font-family="sans-serif" font-size="14" lengthAdjust="spacing" textLength="119" x="125" y="950.9648">RecipeThumbnail</text><ellipse cx="187.5" cy="969.918" fill="#E2E2F0" rx="12" ry="12" style="stroke:#181818;stroke-width:0.5;"/><polygon fill="#181818" points="183.5,957.918,189.5,952.918,187.5,957.918,189.5,962.918,183.5,957.918" style="stroke:#181818;stroke-width:1.0;"/><rect fill="#E2E2F0" height="30.4883" rx="2.5" ry="2.5" style="stroke:#181818;stroke-width:0.5;" width="93" x="260" y="87.4883"/><text fill="#000000" font-family="sans-serif" font-size="14" lengthAdjust="spacing" textLength="79" x="267" y="108.0234">DetailsPage</text><rect fill="#E2E2F0" height="30.4883" rx="2.5" ry="2.5" style="stroke:#181818;stroke-width:0.5;" width="93" x="260" y="937.4297"/><text fill="#000000" font-family="sans-serif" font-size="14" lengthAdjust="spacing" textLength="79" x="267" y="957.9648">DetailsPage</text><rect fill="#E2E2F0" height="30.4883" rx="2.5" ry="2.5" style="stroke:#181818;stroke-width:0.5;" width="72" x="527.5" y="87.4883"/><text fill="#000000" font-family="sans-serif" font-size="14" lengthAdjust="spacing" textLength="58" x="534.5" y="108.0234">UseCase</text><rect fill="#E2E2F0" height="30.4883" rx="2.5" ry="2.5" style="stroke:#181818;stroke-width:0.5;" width="72" x="527.5" y="937.4297"/><text fill="#000000" font-family="sans-serif" font-size="14" lengthAdjust="spacing" textLength="58" x="534.5" y="957.9648">UseCase</text><rect fill="#E2E2F0" height="30.4883" rx="2.5" ry="2.5" style="stroke:#181818;stroke-width:0.5;" width="87" x="744" y="87.4883"/><text fill="#000000" font-family="sans-serif" font-size="14" lengthAdjust="spacing" textLength="73" x="751" y="108.0234">Repository</text><rect fill="#E2E2F0" height="30.4883" rx="2.5" ry="2.5" style="stroke:#181818;stroke-width:0.5;" width="87" x="744" y="937.4297"/><text fill="#000000" font-family="sans-serif" font-size="14" lengthAdjust="spacing" textLength="73" x="751" y="957.9648">Repository</text><rect fill="#E2E2F0" height="30.4883" rx="2.5" ry="2.5" style="stroke:#181818;stroke-width:0.5;" width="74" x="947.5" y="87.4883"/><text fill="#000000" font-family="sans-serif" font-size="14" lengthAdjust="spacing" textLength="60" x="954.5" y="108.0234">Apiclient</text><rect fill="#E2E2F0" height="30.4883" rx="2.5" ry="2.5" style="stroke:#181818;stroke-width:0.5;" width="74" x="947.5" y="937.4297"/><text fill="#000000" font-family="sans-serif" font-size="14" lengthAdjust="spacing" textLength="60" x="954.5" y="957.9648">Apiclient</text><text fill="#000000" font-family="sans-serif" font-size="14" lengthAdjust="spacing" textLength="63" x="1031.5" y="116.0234">Database</text><path d="M1048,66.4883 C1048,56.4883 1066,56.4883 1066,56.4883 C1066,56.4883 1084,56.4883 1084,66.4883 L1084,92.4883 C1084,102.4883 1066,102.4883 1066,102.4883 C1066,102.4883 1048,102.4883 1048,92.4883 L1048,66.4883 " fill="#E2E2F0" style="stroke:#181818;stroke-width:1.5;"/><path d="M1048,66.4883 C1048,76.4883 1066,76.4883 1066,76.4883 C1066,76.4883 1084,76.4883 1084,66.4883 " fill="none" style="stroke:#181818;stroke-width:1.5;"/><text fill="#000000" font-family="sans-serif" font-size="14" lengthAdjust="spacing" textLength="63" x="1031.5" y="950.9648">Database</text><path d="M1048,963.918 C1048,953.918 1066,953.918 1066,953.918 C1066,953.918 1084,953.918 1084,963.918 L1084,989.918 C1084,999.918 1066,999.918 1066,999.918 C1066,999.918 1048,999.918 1048,989.918 L1048,963.918 " fill="#E2E2F0" style="stroke:#181818;stroke-width:1.5;"/><path d="M1048,963.918 C1048,973.918 1066,973.918 1066,973.918 C1066,973.918 1084,973.918 1084,963.918 " fill="none" style="stroke:#181818;stroke-width:1.5;"/><rect fill="#E2E2F0" height="30.4883" rx="2.5" ry="2.5" style="stroke:#181818;stroke-width:0.5;" width="98" x="1110.5" y="87.4883"/><text fill="#000000" font-family="sans-serif" font-size="14" lengthAdjust="spacing" textLength="84" x="1117.5" y="108.0234">TheMealsDb</text><rect fill="#E2E2F0" height="30.4883" rx="2.5" ry="2.5" style="stroke:#181818;stroke-width:0.5;" width="98" x="1110.5" y="937.4297"/><text fill="#000000" font-family="sans-serif" font-size="14" lengthAdjust="spacing" textLength="84" x="1117.5" y="957.9648">TheMealsDb</text><rect fill="#FFFFFF" height="407.0371" style="stroke:#181818;stroke-width:1.0;" width="10" x="301.5" y="352.8398"/><rect fill="#FFFFFF" height="377.7266" style="stroke:#181818;stroke-width:1.0;" width="10" x="558.5" y="382.1504"/><rect fill="#FFFFFF" height="247.4844" style="stroke:#181818;stroke-width:1.0;" width="10" x="782.5" y="411.4609"/><rect fill="#EEEEEE" height="3" style="stroke:#EEEEEE;stroke-width:1.0;" width="1213.5" x="0" y="149.6318"/><line style="stroke:#000000;stroke-width:1.0;" x1="0" x2="1213.5" y1="149.6318" y2="149.6318"/><line style="stroke:#000000;stroke-width:1.0;" x1="0" x2="1213.5" y1="152.6318" y2="152.6318"/><rect fill="#EEEEEE" height="23.3105" style="stroke:#000000;stroke-width:2.0;" width="470" x="371.75" y="138.9766"/><text fill="#000000" font-family="sans-serif" font-size="13" font-weight="bold" lengthAdjust="spacing" textLength="452" x="377.75" y="155.5449">seq 4.1 User click a Recipe Thumbnail from HomeScreen Top Panel</text><rect fill="#EEEEEE" height="3" style="stroke:#EEEEEE;stroke-width:1.0;" width="1213.5" x="0" y="192.9424"/><line style="stroke:#000000;stroke-width:1.0;" x1="0" x2="1213.5" y1="192.9424" y2="192.9424"/><line style="stroke:#000000;stroke-width:1.0;" x1="0" x2="1213.5" y1="195.9424" y2="195.9424"/><rect fill="#EEEEEE" height="23.3105" style="stroke:#000000;stroke-width:2.0;" width="497" x="358.25" y="182.2871"/><text fill="#000000" font-family="sans-serif" font-size="13" font-weight="bold" lengthAdjust="spacing" textLength="479" x="364.25" y="198.8555">seq 4.2 User click a Recipe Thumbnail from SearchScreen search result</text><rect fill="#EEEEEE" height="3" style="stroke:#EEEEEE;stroke-width:1.0;" width="1213.5" x="0" y="236.2529"/><line style="stroke:#000000;stroke-width:1.0;" x1="0" x2="1213.5" y1="236.2529" y2="236.2529"/><line style="stroke:#000000;stroke-width:1.0;" x1="0" x2="1213.5" y1="239.2529" y2="239.2529"/><rect fill="#EEEEEE" height="23.3105" style="stroke:#000000;stroke-width:2.0;" width="479" x="367.25" y="225.5977"/><text fill="#000000" font-family="sans-serif" font-size="13" font-weight="bold" lengthAdjust="spacing" textLength="461" x="373.25" y="242.166">seq 4.3 User click a Recipe Thumbnail from CategoryPage recipe list</text><rect fill="#EEEEEE" height="3" style="stroke:#EEEEEE;stroke-width:1.0;" width="1213.5" x="0" y="279.5635"/><line style="stroke:#000000;stroke-width:1.0;" x1="0" x2="1213.5" y1="279.5635" y2="279.5635"/><line style="stroke:#000000;stroke-width:1.0;" x1="0" x2="1213.5" y1="282.5635" y2="282.5635"/><rect fill="#EEEEEE" height="23.3105" style="stroke:#000000;stroke-width:2.0;" width="482" x="365.75" y="268.9082"/><text fill="#000000" font-family="sans-serif" font-size="13" font-weight="bold" lengthAdjust="spacing" textLength="464" x="371.75" y="285.4766">seq 4.4 User click a Recipe Thumbnail from FavoritePage favorite list</text><polygon fill="#181818" points="175.5,319.5293,185.5,323.5293,175.5,327.5293,179.5,323.5293" style="stroke:#181818;stroke-width:1.0;"/><line style="stroke:#181818;stroke-width:1.0;" x1="23.5" x2="181.5" y1="323.5293" y2="323.5293"/><text fill="#000000" font-family="sans-serif" font-size="13" lengthAdjust="spacing" textLength="140" x="30.5" y="318.7871">click recipe thumbnail</text><polygon fill="#181818" points="289.5,348.8398,299.5,352.8398,289.5,356.8398,293.5,352.8398" style="stroke:#181818;stroke-width:1.0;"/><line style="stroke:#181818;stroke-width:1.0;" x1="132.5" x2="295.5" y1="352.8398" y2="352.8398"/><text fill="#000000" font-family="sans-serif" font-size="13" lengthAdjust="spacing" textLength="155" x="139.5" y="348.0977">transition to DetailsPage</text><polygon fill="#181818" points="546.5,378.1504,556.5,382.1504,546.5,386.1504,550.5,382.1504" style="stroke:#181818;stroke-width:1.0;"/><line style="stroke:#181818;stroke-width:1.0;" x1="311.5" x2="552.5" y1="382.1504" y2="382.1504"/><text fill="#000000" font-family="sans-serif" font-size="13" lengthAdjust="spacing" textLength="198" x="318.5" y="377.4082">Watch getRecipeDetailsProvider</text><line style="stroke:#181818;stroke-width:1.0;" x1="780.5" x2="770.5" y1="411.4609" y2="407.4609"/><line style="stroke:#181818;stroke-width:1.0;" x1="780.5" x2="770.5" y1="411.4609" y2="415.4609"/><line style="stroke:#181818;stroke-width:1.0;" x1="568.5" x2="781.5" y1="411.4609" y2="411.4609"/><text fill="#000000" font-family="sans-serif" font-size="13" lengthAdjust="spacing" textLength="169" x="575.5" y="406.7188">Request recipe details data</text><polygon fill="#181818" points="579.5,436.7715,569.5,440.7715,579.5,444.7715,575.5,440.7715" style="stroke:#181818;stroke-width:1.0;"/><line style="stroke:#181818;stroke-width:1.0;stroke-dasharray:2.0,2.0;" x1="573.5" x2="781.5" y1="440.7715" y2="440.7715"/><text fill="#000000" font-family="sans-serif" font-size="13" lengthAdjust="spacing" textLength="176" x="585.5" y="436.0293">Return AsyncValue.loading()</text><polygon fill="#181818" points="322.5,466.082,312.5,470.082,322.5,474.082,318.5,470.082" style="stroke:#181818;stroke-width:1.0;"/><line style="stroke:#181818;stroke-width:1.0;stroke-dasharray:2.0,2.0;" x1="316.5" x2="557.5" y1="470.082" y2="470.082"/><text fill="#000000" font-family="sans-serif" font-size="13" lengthAdjust="spacing" textLength="125" x="328.5" y="465.3398">Notify loading state</text><line style="stroke:#181818;stroke-width:1.0;" x1="311.5" x2="353.5" y1="499.3926" y2="499.3926"/><line style="stroke:#181818;stroke-width:1.0;" x1="353.5" x2="353.5" y1="499.3926" y2="512.3926"/><line style="stroke:#181818;stroke-width:1.0;" x1="312.5" x2="353.5" y1="512.3926" y2="512.3926"/><polygon fill="#181818" points="322.5,508.3926,312.5,512.3926,322.5,516.3926,318.5,512.3926" style="stroke:#181818;stroke-width:1.0;"/><text fill="#000000" font-family="sans-serif" font-size="13" lengthAdjust="spacing" textLength="196" x="318.5" y="494.6504">Show CircularProgressIndicator</text><polygon fill="#181818" points="972.5,537.7031,982.5,541.7031,972.5,545.7031,976.5,541.7031" style="stroke:#181818;stroke-width:1.0;"/><line style="stroke:#181818;stroke-width:1.0;stroke-dasharray:2.0,2.0;" x1="792.5" x2="978.5" y1="541.7031" y2="541.7031"/><text fill="#000000" font-family="sans-serif" font-size="13" lengthAdjust="spacing" textLength="168" x="799.5" y="536.9609">Fetch data asynchronously</text><polygon fill="#181818" points="1147.5,567.0137,1157.5,571.0137,1147.5,575.0137,1151.5,571.0137" style="stroke:#181818;stroke-width:1.0;"/><line style="stroke:#181818;stroke-width:1.0;" x1="984.5" x2="1153.5" y1="571.0137" y2="571.0137"/><text fill="#000000" font-family="sans-serif" font-size="13" lengthAdjust="spacing" textLength="115" x="991.5" y="566.2715">HTTP GET Request</text><polygon fill="#181818" points="995.5,596.3242,985.5,600.3242,995.5,604.3242,991.5,600.3242" style="stroke:#181818;stroke-width:1.0;"/><line style="stroke:#181818;stroke-width:1.0;stroke-dasharray:2.0,2.0;" x1="989.5" x2="1158.5" y1="600.3242" y2="600.3242"/><text fill="#000000" font-family="sans-serif" font-size="13" lengthAdjust="spacing" textLength="60" x="1001.5" y="595.582">Response</text><polygon fill="#181818" points="803.5,625.6348,793.5,629.6348,803.5,633.6348,799.5,629.6348" style="stroke:#181818;stroke-width:1.0;"/><line style="stroke:#181818;stroke-width:1.0;stroke-dasharray:2.0,2.0;" x1="797.5" x2="983.5" y1="629.6348" y2="629.6348"/><text fill="#000000" font-family="sans-serif" font-size="13" lengthAdjust="spacing" textLength="72" x="809.5" y="624.8926">Return data</text><polygon fill="#181818" points="579.5,654.9453,569.5,658.9453,579.5,662.9453,575.5,658.9453" style="stroke:#181818;stroke-width:1.0;"/><line style="stroke:#181818;stroke-width:1.0;stroke-dasharray:2.0,2.0;" x1="573.5" x2="786.5" y1="658.9453" y2="658.9453"/><text fill="#000000" font-family="sans-serif" font-size="13" lengthAdjust="spacing" textLength="190" x="585.5" y="654.2031">Notify success state with data</text><polygon fill="#181818" points="322.5,684.2559,312.5,688.2559,322.5,692.2559,318.5,688.2559" style="stroke:#181818;stroke-width:1.0;"/><line style="stroke:#181818;stroke-width:1.0;stroke-dasharray:2.0,2.0;" x1="316.5" x2="557.5" y1="688.2559" y2="688.2559"/><text fill="#000000" font-family="sans-serif" font-size="13" lengthAdjust="spacing" textLength="127" x="328.5" y="683.5137">notify data available</text><line style="stroke:#181818;stroke-width:1.0;" x1="311.5" x2="353.5" y1="717.5664" y2="717.5664"/><line style="stroke:#181818;stroke-width:1.0;" x1="353.5" x2="353.5" y1="717.5664" y2="730.5664"/><line style="stroke:#181818;stroke-width:1.0;" x1="312.5" x2="353.5" y1="730.5664" y2="730.5664"/><polygon fill="#181818" points="322.5,726.5664,312.5,730.5664,322.5,734.5664,318.5,730.5664" style="stroke:#181818;stroke-width:1.0;"/><text fill="#000000" font-family="sans-serif" font-size="13" lengthAdjust="spacing" textLength="91" x="318.5" y="712.8242">rebuild Widget</text><polygon fill="#181818" points="34.5,755.877,24.5,759.877,34.5,763.877,30.5,759.877" style="stroke:#181818;stroke-width:1.0;"/><line style="stroke:#181818;stroke-width:1.0;stroke-dasharray:2.0,2.0;" x1="28.5" x2="305.5" y1="759.877" y2="759.877"/><text fill="#000000" font-family="sans-serif" font-size="13" lengthAdjust="spacing" textLength="138" x="40.5" y="755.1348">Display Recipe details</text><rect fill="#EEEEEE" height="3" style="stroke:#EEEEEE;stroke-width:1.0;" width="1213.5" x="0" y="788.5322"/><line style="stroke:#000000;stroke-width:1.0;" x1="0" x2="1213.5" y1="788.5322" y2="788.5322"/><line style="stroke:#000000;stroke-width:1.0;" x1="0" x2="1213.5" y1="791.5322" y2="791.5322"/><rect fill="#EEEEEE" height="23.3105" style="stroke:#000000;stroke-width:2.0;" width="227" x="493.25" y="777.877"/><text fill="#000000" font-family="sans-serif" font-size="13" font-weight="bold" lengthAdjust="spacing" textLength="209" x="499.25" y="794.4453">seq 4.5 mark recipe to Favorite</text><polygon fill="#181818" points="294.5,828.498,304.5,832.498,294.5,836.498,298.5,832.498" style="stroke:#181818;stroke-width:1.0;"/><line style="stroke:#181818;stroke-width:1.0;" x1="23.5" x2="300.5" y1="832.498" y2="832.498"/><text fill="#000000" font-family="sans-serif" font-size="13" lengthAdjust="spacing" textLength="172" x="30.5" y="827.7559">click add to favorite button</text><line style="stroke:#181818;stroke-width:1.0;" x1="561.5" x2="551.5" y1="861.8086" y2="857.8086"/><line style="stroke:#181818;stroke-width:1.0;" x1="561.5" x2="551.5" y1="861.8086" y2="865.8086"/><line style="stroke:#181818;stroke-width:1.0;" x1="306.5" x2="562.5" y1="861.8086" y2="861.8086"/><text fill="#000000" font-family="sans-serif" font-size="13" lengthAdjust="spacing" textLength="233" x="313.5" y="857.0664">update addFavoriteItemToDbProvider</text><line style="stroke:#181818;stroke-width:1.0;" x1="785.5" x2="775.5" y1="891.1191" y2="887.1191"/><line style="stroke:#181818;stroke-width:1.0;" x1="785.5" x2="775.5" y1="891.1191" y2="895.1191"/><line style="stroke:#181818;stroke-width:1.0;" x1="563.5" x2="786.5" y1="891.1191" y2="891.1191"/><text fill="#000000" font-family="sans-serif" font-size="13" lengthAdjust="spacing" textLength="163" x="570.5" y="886.377">write to Favorite DataBase</text><line style="stroke:#181818;stroke-width:1.0;" x1="1064" x2="1054" y1="920.4297" y2="916.4297"/><line style="stroke:#181818;stroke-width:1.0;" x1="1064" x2="1054" y1="920.4297" y2="924.4297"/><line style="stroke:#181818;stroke-width:1.0;" x1="787.5" x2="1065" y1="920.4297" y2="920.4297"/><text fill="#000000" font-family="sans-serif" font-size="13" lengthAdjust="spacing" textLength="113" x="794.5" y="915.6875">insert to database</text><!--SRC=[ZLN1Rjim3BtxAtZS3YcmhRiOIuUkMTSUDWI9jvvbcqc4AP8hqGdozwDisPQ29QXE5aC-aO-F34bI26jyXTiRMA6eeKOIKZam6n1WiP8DPg8YO-6tGvjLHfCrYdtzByMktPUQ_RD6M99i4ffWqKCinHOJEmCy29VQLjWO9nd-b9Zl6rafYPgoMf0eEGeMuIFnAtRu4uLoYpARpy5rTNpeCWMEh_vo3NscCAOA6slsy6JskAuieeR2DB0K6XNCvnFAnxUWh57OQXTmN7TXpbohAC7wz1Qi1q6uPHuyRO5uKDAbIBTlGNeK1sCbOOUq2PSHgmEOtPrtC0-WuMKQE_kLVQEEva1MQ6wPD1h89CrcdSW3bv4OWKzqzqy78UJm8eWPsoBroGnkrXnapMBpeIFce1u89zmPxovIKSxVhorogQ6GGSzUHsFi21h93w8pcM4Mvxj2Qgs6UtVIrH-XMhnHHjHIRz-zJ-B7tCwv-sL8RauGei0H9v54dZ6L1AztvWWFqbQj4fP9shBKtBEkPIKurMi5ZEEKmoDwoZqR87mPEskqQPrA2HW3V1BJaENmL1HB-F6z66XEeYR7yrTNw1gZ7LvwP7RUmuxdf6SnhrzciyG_qEhQgc9AUbhXA6cNGjHuhV4NcwPxz9wp0zj5gQPAhdNCOjbALSEBh5da_m_fzMLpM4ZNA74QXZe8DpjBV1Y3o1HFsxGgFiDUs6cUpRWMuYMGP1ksIbrxxt5lb2sHqLbQPZGJRLFx93XiUE2PS5-OHJdEyQLHFNOFnAdv9V_DbnSBcAE6vP-3P1LPya73FyC_]--></g></svg>