<?xml version="1.0" encoding="us-ascii" standalone="no"?><svg xmlns="http://www.w3.org/2000/svg" xmlns:xlink="http://www.w3.org/1999/xlink" contentStyleType="text/css" height="830px" preserveAspectRatio="none" style="width:961px;height:830px;background:#FFFFFF;" version="1.1" viewBox="0 0 961 830" width="961px" zoomAndPan="magnify"><defs/><g><text fill="#000000" font-family="sans-serif" font-size="14" font-weight="bold" lengthAdjust="spacing" textLength="177" x="388" y="28.5352">Seq 5. Read Favorite List</text><rect fill="#FFFFFF" height="348.416" style="stroke:#181818;stroke-width:1.0;" width="10" x="241.5" y="222.9082"/><rect fill="#FFFFFF" height="319.1055" style="stroke:#181818;stroke-width:1.0;" width="10" x="487.5" y="252.2188"/><rect fill="#FFFFFF" height="188.8633" style="stroke:#181818;stroke-width:1.0;" width="10" x="711.5" y="281.5293"/><line style="stroke:#181818;stroke-width:0.5;stroke-dasharray:5.0,5.0;" x1="23" x2="23" y1="118.9766" y2="749.877"/><line style="stroke:#181818;stroke-width:0.5;stroke-dasharray:5.0,5.0;" x1="131" x2="131" y1="118.9766" y2="749.877"/><line style="stroke:#181818;stroke-width:0.5;stroke-dasharray:5.0,5.0;" x1="246.5" x2="246.5" y1="118.9766" y2="749.877"/><line style="stroke:#181818;stroke-width:0.5;stroke-dasharray:5.0,5.0;" x1="492.5" x2="492.5" y1="118.9766" y2="749.877"/><line style="stroke:#181818;stroke-width:0.5;stroke-dasharray:5.0,5.0;" x1="716" x2="716" y1="118.9766" y2="749.877"/><line style="stroke:#181818;stroke-width:0.5;stroke-dasharray:5.0,5.0;" x1="914" x2="914" y1="118.9766" y2="749.877"/><text fill="#000000" font-family="sans-serif" font-size="14" lengthAdjust="spacing" textLength="31" x="5" y="116.0234">User</text><ellipse cx="23.5" cy="50.9883" fill="#E2E2F0" rx="8" ry="8" style="stroke:#181818;stroke-width:0.5;"/><path d="M23.5,58.9883 L23.5,85.9883 M10.5,66.9883 L36.5,66.9883 M23.5,85.9883 L10.5,100.9883 M23.5,85.9883 L36.5,100.9883 " fill="none" style="stroke:#181818;stroke-width:0.5;"/><text fill="#000000" font-family="sans-serif" font-size="14" lengthAdjust="spacing" textLength="31" x="5" y="762.4121">User</text><ellipse cx="23.5" cy="773.8652" fill="#E2E2F0" rx="8" ry="8" style="stroke:#181818;stroke-width:0.5;"/><path d="M23.5,781.8652 L23.5,808.8652 M10.5,789.8652 L36.5,789.8652 M23.5,808.8652 L10.5,823.8652 M23.5,808.8652 L36.5,823.8652 " fill="none" style="stroke:#181818;stroke-width:0.5;"/><text fill="#000000" font-family="sans-serif" font-size="14" lengthAdjust="spacing" textLength="81" x="88" y="116.0234">FavoriteTab</text><ellipse cx="131.5" cy="86.4883" fill="#E2E2F0" rx="12" ry="12" style="stroke:#181818;stroke-width:0.5;"/><polygon fill="#181818" points="127.5,74.4883,133.5,69.4883,131.5,74.4883,133.5,79.4883,127.5,74.4883" style="stroke:#181818;stroke-width:1.0;"/><text fill="#000000" font-family="sans-serif" font-size="14" lengthAdjust="spacing" textLength="81" x="88" y="762.4121">FavoriteTab</text><ellipse cx="131.5" cy="781.3652" fill="#E2E2F0" rx="12" ry="12" style="stroke:#181818;stroke-width:0.5;"/><polygon fill="#181818" points="127.5,769.3652,133.5,764.3652,131.5,769.3652,133.5,774.3652,127.5,769.3652" style="stroke:#181818;stroke-width:1.0;"/><rect fill="#E2E2F0" height="30.4883" rx="2.5" ry="2.5" style="stroke:#181818;stroke-width:0.5;" width="102" x="195.5" y="87.4883"/><text fill="#000000" font-family="sans-serif" font-size="14" lengthAdjust="spacing" textLength="88" x="202.5" y="108.0234">FavoritePage</text><rect fill="#E2E2F0" height="30.4883" rx="2.5" ry="2.5" style="stroke:#181818;stroke-width:0.5;" width="102" x="195.5" y="748.877"/><text fill="#000000" font-family="sans-serif" font-size="14" lengthAdjust="spacing" textLength="88" x="202.5" y="769.4121">FavoritePage</text><rect fill="#E2E2F0" height="30.4883" rx="2.5" ry="2.5" style="stroke:#181818;stroke-width:0.5;" width="72" x="456.5" y="87.4883"/><text fill="#000000" font-family="sans-serif" font-size="14" lengthAdjust="spacing" textLength="58" x="463.5" y="108.0234">UseCase</text><rect fill="#E2E2F0" height="30.4883" rx="2.5" ry="2.5" style="stroke:#181818;stroke-width:0.5;" width="72" x="456.5" y="748.877"/><text fill="#000000" font-family="sans-serif" font-size="14" lengthAdjust="spacing" textLength="58" x="463.5" y="769.4121">UseCase</text><rect fill="#E2E2F0" height="30.4883" rx="2.5" ry="2.5" style="stroke:#181818;stroke-width:0.5;" width="87" x="673" y="87.4883"/><text fill="#000000" font-family="sans-serif" font-size="14" lengthAdjust="spacing" textLength="73" x="680" y="108.0234">Repository</text><rect fill="#E2E2F0" height="30.4883" rx="2.5" ry="2.5" style="stroke:#181818;stroke-width:0.5;" width="87" x="673" y="748.877"/><text fill="#000000" font-family="sans-serif" font-size="14" lengthAdjust="spacing" textLength="73" x="680" y="769.4121">Repository</text><text fill="#000000" font-family="sans-serif" font-size="14" lengthAdjust="spacing" textLength="63" x="880" y="116.0234">Database</text><path d="M896.5,66.4883 C896.5,56.4883 914.5,56.4883 914.5,56.4883 C914.5,56.4883 932.5,56.4883 932.5,66.4883 L932.5,92.4883 C932.5,102.4883 914.5,102.4883 914.5,102.4883 C914.5,102.4883 896.5,102.4883 896.5,92.4883 L896.5,66.4883 " fill="#E2E2F0" style="stroke:#181818;stroke-width:1.5;"/><path d="M896.5,66.4883 C896.5,76.4883 914.5,76.4883 914.5,76.4883 C914.5,76.4883 932.5,76.4883 932.5,66.4883 " fill="none" style="stroke:#181818;stroke-width:1.5;"/><text fill="#000000" font-family="sans-serif" font-size="14" lengthAdjust="spacing" textLength="63" x="880" y="762.4121">Database</text><path d="M896.5,775.3652 C896.5,765.3652 914.5,765.3652 914.5,765.3652 C914.5,765.3652 932.5,765.3652 932.5,775.3652 L932.5,801.3652 C932.5,811.3652 914.5,811.3652 914.5,811.3652 C914.5,811.3652 896.5,811.3652 896.5,801.3652 L896.5,775.3652 " fill="#E2E2F0" style="stroke:#181818;stroke-width:1.5;"/><path d="M896.5,775.3652 C896.5,785.3652 914.5,785.3652 914.5,785.3652 C914.5,785.3652 932.5,785.3652 932.5,775.3652 " fill="none" style="stroke:#181818;stroke-width:1.5;"/><rect fill="#FFFFFF" height="348.416" style="stroke:#181818;stroke-width:1.0;" width="10" x="241.5" y="222.9082"/><rect fill="#FFFFFF" height="319.1055" style="stroke:#181818;stroke-width:1.0;" width="10" x="487.5" y="252.2188"/><rect fill="#FFFFFF" height="188.8633" style="stroke:#181818;stroke-width:1.0;" width="10" x="711.5" y="281.5293"/><rect fill="#EEEEEE" height="3" style="stroke:#EEEEEE;stroke-width:1.0;" width="954" x="0" y="149.6318"/><line style="stroke:#000000;stroke-width:1.0;" x1="0" x2="954" y1="149.6318" y2="149.6318"/><line style="stroke:#000000;stroke-width:1.0;" x1="0" x2="954" y1="152.6318" y2="152.6318"/><rect fill="#EEEEEE" height="23.3105" style="stroke:#000000;stroke-width:2.0;" width="333" x="310.5" y="138.9766"/><text fill="#000000" font-family="sans-serif" font-size="13" font-weight="bold" lengthAdjust="spacing" textLength="315" x="316.5" y="155.5449">seq 5.1 User click Favorite Tab on BottomSheet</text><polygon fill="#181818" points="119.5,189.5977,129.5,193.5977,119.5,197.5977,123.5,193.5977" style="stroke:#181818;stroke-width:1.0;"/><line style="stroke:#181818;stroke-width:1.0;" x1="23.5" x2="125.5" y1="193.5977" y2="193.5977"/><text fill="#000000" font-family="sans-serif" font-size="13" lengthAdjust="spacing" textLength="84" x="30.5" y="188.8555">click Favorite</text><polygon fill="#181818" points="229.5,218.9082,239.5,222.9082,229.5,226.9082,233.5,222.9082" style="stroke:#181818;stroke-width:1.0;"/><line style="stroke:#181818;stroke-width:1.0;" x1="66.5" x2="235.5" y1="222.9082" y2="222.9082"/><text fill="#000000" font-family="sans-serif" font-size="13" lengthAdjust="spacing" textLength="161" x="73.5" y="218.166">transition to FavoritePage</text><polygon fill="#181818" points="475.5,248.2188,485.5,252.2188,475.5,256.2188,479.5,252.2188" style="stroke:#181818;stroke-width:1.0;"/><line style="stroke:#181818;stroke-width:1.0;" x1="251.5" x2="481.5" y1="252.2188" y2="252.2188"/><text fill="#000000" font-family="sans-serif" font-size="13" lengthAdjust="spacing" textLength="187" x="258.5" y="247.4766">Watch getAllFavoritesProvider</text><line style="stroke:#181818;stroke-width:1.0;" x1="709.5" x2="699.5" y1="281.5293" y2="277.5293"/><line style="stroke:#181818;stroke-width:1.0;" x1="709.5" x2="699.5" y1="281.5293" y2="285.5293"/><line style="stroke:#181818;stroke-width:1.0;" x1="497.5" x2="710.5" y1="281.5293" y2="281.5293"/><text fill="#000000" font-family="sans-serif" font-size="13" lengthAdjust="spacing" textLength="168" x="504.5" y="276.7871">Request favorite recipe list</text><polygon fill="#181818" points="508.5,306.8398,498.5,310.8398,508.5,314.8398,504.5,310.8398" style="stroke:#181818;stroke-width:1.0;"/><line style="stroke:#181818;stroke-width:1.0;stroke-dasharray:2.0,2.0;" x1="502.5" x2="710.5" y1="310.8398" y2="310.8398"/><text fill="#000000" font-family="sans-serif" font-size="13" lengthAdjust="spacing" textLength="176" x="514.5" y="306.0977">Return AsyncValue.loading()</text><polygon fill="#181818" points="262.5,336.1504,252.5,340.1504,262.5,344.1504,258.5,340.1504" style="stroke:#181818;stroke-width:1.0;"/><line style="stroke:#181818;stroke-width:1.0;stroke-dasharray:2.0,2.0;" x1="256.5" x2="486.5" y1="340.1504" y2="340.1504"/><text fill="#000000" font-family="sans-serif" font-size="13" lengthAdjust="spacing" textLength="125" x="268.5" y="335.4082">Notify loading state</text><line style="stroke:#181818;stroke-width:1.0;" x1="251.5" x2="293.5" y1="369.4609" y2="369.4609"/><line style="stroke:#181818;stroke-width:1.0;" x1="293.5" x2="293.5" y1="369.4609" y2="382.4609"/><line style="stroke:#181818;stroke-width:1.0;" x1="252.5" x2="293.5" y1="382.4609" y2="382.4609"/><polygon fill="#181818" points="262.5,378.4609,252.5,382.4609,262.5,386.4609,258.5,382.4609" style="stroke:#181818;stroke-width:1.0;"/><text fill="#000000" font-family="sans-serif" font-size="13" lengthAdjust="spacing" textLength="196" x="258.5" y="364.7188">Show CircularProgressIndicator</text><line style="stroke:#181818;stroke-width:1.0;" x1="912.5" x2="902.5" y1="411.7715" y2="407.7715"/><line style="stroke:#181818;stroke-width:1.0;" x1="912.5" x2="902.5" y1="411.7715" y2="415.7715"/><line style="stroke:#181818;stroke-width:1.0;" x1="721.5" x2="913.5" y1="411.7715" y2="411.7715"/><text fill="#000000" font-family="sans-serif" font-size="13" lengthAdjust="spacing" textLength="169" x="728.5" y="407.0293">query data asynchronously</text><polygon fill="#181818" points="732.5,437.082,722.5,441.082,732.5,445.082,728.5,441.082" style="stroke:#181818;stroke-width:1.0;"/><line style="stroke:#181818;stroke-width:1.0;stroke-dasharray:2.0,2.0;" x1="726.5" x2="913.5" y1="441.082" y2="441.082"/><text fill="#000000" font-family="sans-serif" font-size="13" lengthAdjust="spacing" textLength="72" x="738.5" y="436.3398">Return data</text><polygon fill="#181818" points="508.5,466.3926,498.5,470.3926,508.5,474.3926,504.5,470.3926" style="stroke:#181818;stroke-width:1.0;"/><line style="stroke:#181818;stroke-width:1.0;stroke-dasharray:2.0,2.0;" x1="502.5" x2="715.5" y1="470.3926" y2="470.3926"/><text fill="#000000" font-family="sans-serif" font-size="13" lengthAdjust="spacing" textLength="190" x="514.5" y="465.6504">Notify success state with data</text><polygon fill="#181818" points="262.5,495.7031,252.5,499.7031,262.5,503.7031,258.5,499.7031" style="stroke:#181818;stroke-width:1.0;"/><line style="stroke:#181818;stroke-width:1.0;stroke-dasharray:2.0,2.0;" x1="256.5" x2="486.5" y1="499.7031" y2="499.7031"/><text fill="#000000" font-family="sans-serif" font-size="13" lengthAdjust="spacing" textLength="127" x="268.5" y="494.9609">notify data available</text><line style="stroke:#181818;stroke-width:1.0;" x1="251.5" x2="293.5" y1="529.0137" y2="529.0137"/><line style="stroke:#181818;stroke-width:1.0;" x1="293.5" x2="293.5" y1="529.0137" y2="542.0137"/><line style="stroke:#181818;stroke-width:1.0;" x1="252.5" x2="293.5" y1="542.0137" y2="542.0137"/><polygon fill="#181818" points="262.5,538.0137,252.5,542.0137,262.5,546.0137,258.5,542.0137" style="stroke:#181818;stroke-width:1.0;"/><text fill="#000000" font-family="sans-serif" font-size="13" lengthAdjust="spacing" textLength="91" x="258.5" y="524.2715">rebuild Widget</text><polygon fill="#181818" points="34.5,567.3242,24.5,571.3242,34.5,575.3242,30.5,571.3242" style="stroke:#181818;stroke-width:1.0;"/><line style="stroke:#181818;stroke-width:1.0;stroke-dasharray:2.0,2.0;" x1="28.5" x2="245.5" y1="571.3242" y2="571.3242"/><text fill="#000000" font-family="sans-serif" font-size="13" lengthAdjust="spacing" textLength="194" x="40.5" y="566.582">Display List of Favorite recipes</text><rect fill="#EEEEEE" height="3" style="stroke:#EEEEEE;stroke-width:1.0;" width="954" x="0" y="599.9795"/><line style="stroke:#000000;stroke-width:1.0;" x1="0" x2="954" y1="599.9795" y2="599.9795"/><line style="stroke:#000000;stroke-width:1.0;" x1="0" x2="954" y1="602.9795" y2="602.9795"/><rect fill="#EEEEEE" height="23.3105" style="stroke:#000000;stroke-width:2.0;" width="302" x="326" y="589.3242"/><text fill="#000000" font-family="sans-serif" font-size="13" font-weight="bold" lengthAdjust="spacing" textLength="284" x="332" y="605.8926">seq 5.2 remove a recipe from Favorite List</text><polygon fill="#181818" points="234.5,639.9453,244.5,643.9453,234.5,647.9453,238.5,643.9453" style="stroke:#181818;stroke-width:1.0;"/><line style="stroke:#181818;stroke-width:1.0;" x1="23.5" x2="240.5" y1="643.9453" y2="643.9453"/><text fill="#000000" font-family="sans-serif" font-size="13" lengthAdjust="spacing" textLength="173" x="30.5" y="639.2031">click remove on recipe card</text><line style="stroke:#181818;stroke-width:1.0;" x1="490.5" x2="480.5" y1="673.2559" y2="669.2559"/><line style="stroke:#181818;stroke-width:1.0;" x1="490.5" x2="480.5" y1="673.2559" y2="677.2559"/><line style="stroke:#181818;stroke-width:1.0;" x1="246.5" x2="491.5" y1="673.2559" y2="673.2559"/><text fill="#000000" font-family="sans-serif" font-size="13" lengthAdjust="spacing" textLength="222" x="253.5" y="668.5137">update removeFavoriteItemProvider</text><line style="stroke:#181818;stroke-width:1.0;" x1="714.5" x2="704.5" y1="702.5664" y2="698.5664"/><line style="stroke:#181818;stroke-width:1.0;" x1="714.5" x2="704.5" y1="702.5664" y2="706.5664"/><line style="stroke:#181818;stroke-width:1.0;" x1="492.5" x2="715.5" y1="702.5664" y2="702.5664"/><text fill="#000000" font-family="sans-serif" font-size="13" lengthAdjust="spacing" textLength="124" x="499.5" y="697.8242">removeFavoriteItem</text><line style="stroke:#181818;stroke-width:1.0;" x1="912.5" x2="902.5" y1="731.877" y2="727.877"/><line style="stroke:#181818;stroke-width:1.0;" x1="912.5" x2="902.5" y1="731.877" y2="735.877"/><line style="stroke:#181818;stroke-width:1.0;" x1="716.5" x2="913.5" y1="731.877" y2="731.877"/><text fill="#000000" font-family="sans-serif" font-size="13" lengthAdjust="spacing" textLength="172" x="723.5" y="727.1348">remove item from database</text><!--SRC=[VLHDRzim3BthL_2u7b9W0tenbWvTYm45Xg58jlNCI4eiJ9PSYNQHVp_wGxQLrjN9flYezvv8aI6hOQzVuEOQTXeL_C3M1qCQVff80YNv07-Y3a9wHy7RAU4t7aIDWOmqDJgQuazuqja6e-ynvh6ThdqqNFii518UU1yUnW-ntKBi6NtkJmPfZVmt4-E3mJluxebyjI-r9jXkHP-vkLtIAowGujjYlwDP00LqpCDmFVAv19PkMkJpiYZmMWQw8qU11JmZoH9EckwiJKdnAVZMA3QmWqv5aoamhl6Vozqkp2du-wNHaU2Or0VD5cgmtUqay5HrOIiirXo6pPBlJbCJ7Dp5ivD_qJRwsdfKnfq-NMNuYTmR_tvvCiSpZ328n2mowALNENnV-bUuDq4s5WCRTGewnaUdZ4Hckwg1FKhDKW3xmx6kYm0x8MNmpZVHvXQa_5v3Rd3lGOT_L_FNpIRB7nN7HahcEYY6LqDbNaBfZovbtL0tb1_aj6Wi7kpiwCTk1dreZ5NmR1Jtu0fekFzGm8E9jSLpF-VWZ_Dy3HqMnOMCrB6BK3OPyzX-uHALRpLWwjPZy5N-ihmtieEAOMR72ZoNOmc9GOaB_OjMRcg5FVSEbj8UILVJ-ArDs5k8MEsraHNdLOEcz7Zz1m00]--></g></svg>