<?xml version="1.0" encoding="us-ascii" standalone="no"?><svg xmlns="http://www.w3.org/2000/svg" xmlns:xlink="http://www.w3.org/1999/xlink" contentStyleType="text/css" height="830px" preserveAspectRatio="none" style="width:1431px;height:830px;background:#FFFFFF;" version="1.1" viewBox="0 0 1431 830" width="1431px" zoomAndPan="magnify"><defs/><g><text fill="#000000" font-family="sans-serif" font-size="14" font-weight="bold" lengthAdjust="spacing" textLength="260" x="581.5" y="28.5352">Seq 3. Read all recipes of a category</text><rect fill="#FFFFFF" height="407.0371" style="stroke:#181818;stroke-width:1.0;" width="10" x="491.5" y="222.9082"/><rect fill="#FFFFFF" height="377.7266" style="stroke:#181818;stroke-width:1.0;" width="10" x="805" y="252.2188"/><rect fill="#FFFFFF" height="247.4844" style="stroke:#181818;stroke-width:1.0;" width="10" x="1029" y="281.5293"/><line style="stroke:#181818;stroke-width:0.5;stroke-dasharray:5.0,5.0;" x1="23" x2="23" y1="118.9766" y2="749.877"/><line style="stroke:#181818;stroke-width:0.5;stroke-dasharray:5.0,5.0;" x1="305.5" x2="305.5" y1="118.9766" y2="749.877"/><line style="stroke:#181818;stroke-width:0.5;stroke-dasharray:5.0,5.0;" x1="496" x2="496" y1="118.9766" y2="749.877"/><line style="stroke:#181818;stroke-width:0.5;stroke-dasharray:5.0,5.0;" x1="717" x2="717" y1="118.9766" y2="749.877"/><line style="stroke:#181818;stroke-width:0.5;stroke-dasharray:5.0,5.0;" x1="810" x2="810" y1="118.9766" y2="749.877"/><line style="stroke:#181818;stroke-width:0.5;stroke-dasharray:5.0,5.0;" x1="1033.5" x2="1033.5" y1="118.9766" y2="749.877"/><line style="stroke:#181818;stroke-width:0.5;stroke-dasharray:5.0,5.0;" x1="1231" x2="1231" y1="118.9766" y2="749.877"/><line style="stroke:#181818;stroke-width:0.5;stroke-dasharray:5.0,5.0;" x1="1370" x2="1370" y1="118.9766" y2="749.877"/><text fill="#000000" font-family="sans-serif" font-size="14" lengthAdjust="spacing" textLength="31" x="5" y="116.0234">User</text><ellipse cx="23.5" cy="50.9883" fill="#E2E2F0" rx="8" ry="8" style="stroke:#181818;stroke-width:0.5;"/><path d="M23.5,58.9883 L23.5,85.9883 M10.5,66.9883 L36.5,66.9883 M23.5,85.9883 L10.5,100.9883 M23.5,85.9883 L36.5,100.9883 " fill="none" style="stroke:#181818;stroke-width:0.5;"/><text fill="#000000" font-family="sans-serif" font-size="14" lengthAdjust="spacing" textLength="31" x="5" y="762.4121">User</text><ellipse cx="23.5" cy="773.8652" fill="#E2E2F0" rx="8" ry="8" style="stroke:#181818;stroke-width:0.5;"/><path d="M23.5,781.8652 L23.5,808.8652 M10.5,789.8652 L36.5,789.8652 M23.5,808.8652 L10.5,823.8652 M23.5,808.8652 L36.5,823.8652 " fill="none" style="stroke:#181818;stroke-width:0.5;"/><rect fill="#E2E2F0" height="30.4883" rx="2.5" ry="2.5" style="stroke:#181818;stroke-width:0.5;" width="100" x="255.5" y="87.4883"/><text fill="#000000" font-family="sans-serif" font-size="14" lengthAdjust="spacing" textLength="86" x="262.5" y="108.0234">HomeScreen</text><rect fill="#E2E2F0" height="30.4883" rx="2.5" ry="2.5" style="stroke:#181818;stroke-width:0.5;" width="100" x="255.5" y="748.877"/><text fill="#000000" font-family="sans-serif" font-size="14" lengthAdjust="spacing" textLength="86" x="262.5" y="769.4121">HomeScreen</text><rect fill="#E2E2F0" height="30.4883" rx="2.5" ry="2.5" style="stroke:#181818;stroke-width:0.5;" width="109" x="442" y="87.4883"/><text fill="#000000" font-family="sans-serif" font-size="14" lengthAdjust="spacing" textLength="95" x="449" y="108.0234">CategoryPage</text><rect fill="#E2E2F0" height="30.4883" rx="2.5" ry="2.5" style="stroke:#181818;stroke-width:0.5;" width="109" x="442" y="748.877"/><text fill="#000000" font-family="sans-serif" font-size="14" lengthAdjust="spacing" textLength="95" x="449" y="769.4121">CategoryPage</text><rect fill="#E2E2F0" height="30.4883" rx="2.5" ry="2.5" style="stroke:#181818;stroke-width:0.5;" width="93" x="671" y="87.4883"/><text fill="#000000" font-family="sans-serif" font-size="14" lengthAdjust="spacing" textLength="79" x="678" y="108.0234">DetailsPage</text><rect fill="#E2E2F0" height="30.4883" rx="2.5" ry="2.5" style="stroke:#181818;stroke-width:0.5;" width="93" x="671" y="748.877"/><text fill="#000000" font-family="sans-serif" font-size="14" lengthAdjust="spacing" textLength="79" x="678" y="769.4121">DetailsPage</text><rect fill="#E2E2F0" height="30.4883" rx="2.5" ry="2.5" style="stroke:#181818;stroke-width:0.5;" width="72" x="774" y="87.4883"/><text fill="#000000" font-family="sans-serif" font-size="14" lengthAdjust="spacing" textLength="58" x="781" y="108.0234">UseCase</text><rect fill="#E2E2F0" height="30.4883" rx="2.5" ry="2.5" style="stroke:#181818;stroke-width:0.5;" width="72" x="774" y="748.877"/><text fill="#000000" font-family="sans-serif" font-size="14" lengthAdjust="spacing" textLength="58" x="781" y="769.4121">UseCase</text><rect fill="#E2E2F0" height="30.4883" rx="2.5" ry="2.5" style="stroke:#181818;stroke-width:0.5;" width="87" x="990.5" y="87.4883"/><text fill="#000000" font-family="sans-serif" font-size="14" lengthAdjust="spacing" textLength="73" x="997.5" y="108.0234">Repository</text><rect fill="#E2E2F0" height="30.4883" rx="2.5" ry="2.5" style="stroke:#181818;stroke-width:0.5;" width="87" x="990.5" y="748.877"/><text fill="#000000" font-family="sans-serif" font-size="14" lengthAdjust="spacing" textLength="73" x="997.5" y="769.4121">Repository</text><rect fill="#E2E2F0" height="30.4883" rx="2.5" ry="2.5" style="stroke:#181818;stroke-width:0.5;" width="74" x="1194" y="87.4883"/><text fill="#000000" font-family="sans-serif" font-size="14" lengthAdjust="spacing" textLength="60" x="1201" y="108.0234">Apiclient</text><rect fill="#E2E2F0" height="30.4883" rx="2.5" ry="2.5" style="stroke:#181818;stroke-width:0.5;" width="74" x="1194" y="748.877"/><text fill="#000000" font-family="sans-serif" font-size="14" lengthAdjust="spacing" textLength="60" x="1201" y="769.4121">Apiclient</text><rect fill="#E2E2F0" height="30.4883" rx="2.5" ry="2.5" style="stroke:#181818;stroke-width:0.5;" width="98" x="1321" y="87.4883"/><text fill="#000000" font-family="sans-serif" font-size="14" lengthAdjust="spacing" textLength="84" x="1328" y="108.0234">TheMealsDb</text><rect fill="#E2E2F0" height="30.4883" rx="2.5" ry="2.5" style="stroke:#181818;stroke-width:0.5;" width="98" x="1321" y="748.877"/><text fill="#000000" font-family="sans-serif" font-size="14" lengthAdjust="spacing" textLength="84" x="1328" y="769.4121">TheMealsDb</text><rect fill="#FFFFFF" height="407.0371" style="stroke:#181818;stroke-width:1.0;" width="10" x="491.5" y="222.9082"/><rect fill="#FFFFFF" height="377.7266" style="stroke:#181818;stroke-width:1.0;" width="10" x="805" y="252.2188"/><rect fill="#FFFFFF" height="247.4844" style="stroke:#181818;stroke-width:1.0;" width="10" x="1029" y="281.5293"/><rect fill="#EEEEEE" height="3" style="stroke:#EEEEEE;stroke-width:1.0;" width="1424" x="0" y="149.6318"/><line style="stroke:#000000;stroke-width:1.0;" x1="0" x2="1424" y1="149.6318" y2="149.6318"/><line style="stroke:#000000;stroke-width:1.0;" x1="0" x2="1424" y1="152.6318" y2="152.6318"/><rect fill="#EEEEEE" height="23.3105" style="stroke:#000000;stroke-width:2.0;" width="282" x="571" y="138.9766"/><text fill="#000000" font-family="sans-serif" font-size="13" font-weight="bold" lengthAdjust="spacing" textLength="264" x="577" y="155.5449">seq 3.1 select category on HomeScreen</text><polygon fill="#181818" points="293.5,189.5977,303.5,193.5977,293.5,197.5977,297.5,193.5977" style="stroke:#181818;stroke-width:1.0;"/><line style="stroke:#181818;stroke-width:1.0;" x1="23.5" x2="299.5" y1="193.5977" y2="193.5977"/><text fill="#000000" font-family="sans-serif" font-size="13" lengthAdjust="spacing" textLength="258" x="30.5" y="188.8555">click category thumbnail on category list</text><polygon fill="#181818" points="479.5,218.9082,489.5,222.9082,479.5,226.9082,483.5,222.9082" style="stroke:#181818;stroke-width:1.0;"/><line style="stroke:#181818;stroke-width:1.0;" x1="305.5" x2="485.5" y1="222.9082" y2="222.9082"/><text fill="#000000" font-family="sans-serif" font-size="13" lengthAdjust="spacing" textLength="167" x="312.5" y="218.166">transition to CategoryPage</text><polygon fill="#181818" points="793,248.2188,803,252.2188,793,256.2188,797,252.2188" style="stroke:#181818;stroke-width:1.0;"/><line style="stroke:#181818;stroke-width:1.0;" x1="501.5" x2="799" y1="252.2188" y2="252.2188"/><text fill="#000000" font-family="sans-serif" font-size="13" lengthAdjust="spacing" textLength="265" x="508.5" y="247.4766">Watch getRecipesShortOfCategoryProvider</text><line style="stroke:#181818;stroke-width:1.0;" x1="1027" x2="1017" y1="281.5293" y2="277.5293"/><line style="stroke:#181818;stroke-width:1.0;" x1="1027" x2="1017" y1="281.5293" y2="285.5293"/><line style="stroke:#181818;stroke-width:1.0;" x1="815" x2="1028" y1="281.5293" y2="281.5293"/><text fill="#000000" font-family="sans-serif" font-size="13" lengthAdjust="spacing" textLength="174" x="822" y="276.7871">Request recipes of category</text><polygon fill="#181818" points="826,306.8398,816,310.8398,826,314.8398,822,310.8398" style="stroke:#181818;stroke-width:1.0;"/><line style="stroke:#181818;stroke-width:1.0;stroke-dasharray:2.0,2.0;" x1="820" x2="1028" y1="310.8398" y2="310.8398"/><text fill="#000000" font-family="sans-serif" font-size="13" lengthAdjust="spacing" textLength="176" x="832" y="306.0977">Return AsyncValue.loading()</text><polygon fill="#181818" points="512.5,336.1504,502.5,340.1504,512.5,344.1504,508.5,340.1504" style="stroke:#181818;stroke-width:1.0;"/><line style="stroke:#181818;stroke-width:1.0;stroke-dasharray:2.0,2.0;" x1="506.5" x2="804" y1="340.1504" y2="340.1504"/><text fill="#000000" font-family="sans-serif" font-size="13" lengthAdjust="spacing" textLength="125" x="518.5" y="335.4082">Notify loading state</text><line style="stroke:#181818;stroke-width:1.0;" x1="501.5" x2="543.5" y1="369.4609" y2="369.4609"/><line style="stroke:#181818;stroke-width:1.0;" x1="543.5" x2="543.5" y1="369.4609" y2="382.4609"/><line style="stroke:#181818;stroke-width:1.0;" x1="502.5" x2="543.5" y1="382.4609" y2="382.4609"/><polygon fill="#181818" points="512.5,378.4609,502.5,382.4609,512.5,386.4609,508.5,382.4609" style="stroke:#181818;stroke-width:1.0;"/><text fill="#000000" font-family="sans-serif" font-size="13" lengthAdjust="spacing" textLength="196" x="508.5" y="364.7188">Show CircularProgressIndicator</text><polygon fill="#181818" points="1219,407.7715,1229,411.7715,1219,415.7715,1223,411.7715" style="stroke:#181818;stroke-width:1.0;"/><line style="stroke:#181818;stroke-width:1.0;stroke-dasharray:2.0,2.0;" x1="1039" x2="1225" y1="411.7715" y2="411.7715"/><text fill="#000000" font-family="sans-serif" font-size="13" lengthAdjust="spacing" textLength="168" x="1046" y="407.0293">Fetch data asynchronously</text><polygon fill="#181818" points="1358,437.082,1368,441.082,1358,445.082,1362,441.082" style="stroke:#181818;stroke-width:1.0;"/><line style="stroke:#181818;stroke-width:1.0;" x1="1231" x2="1364" y1="441.082" y2="441.082"/><text fill="#000000" font-family="sans-serif" font-size="13" lengthAdjust="spacing" textLength="115" x="1238" y="436.3398">HTTP GET Request</text><polygon fill="#181818" points="1242,466.3926,1232,470.3926,1242,474.3926,1238,470.3926" style="stroke:#181818;stroke-width:1.0;"/><line style="stroke:#181818;stroke-width:1.0;stroke-dasharray:2.0,2.0;" x1="1236" x2="1369" y1="470.3926" y2="470.3926"/><text fill="#000000" font-family="sans-serif" font-size="13" lengthAdjust="spacing" textLength="60" x="1248" y="465.6504">Response</text><polygon fill="#181818" points="1050,495.7031,1040,499.7031,1050,503.7031,1046,499.7031" style="stroke:#181818;stroke-width:1.0;"/><line style="stroke:#181818;stroke-width:1.0;stroke-dasharray:2.0,2.0;" x1="1044" x2="1230" y1="499.7031" y2="499.7031"/><text fill="#000000" font-family="sans-serif" font-size="13" lengthAdjust="spacing" textLength="72" x="1056" y="494.9609">Return data</text><polygon fill="#181818" points="826,525.0137,816,529.0137,826,533.0137,822,529.0137" style="stroke:#181818;stroke-width:1.0;"/><line style="stroke:#181818;stroke-width:1.0;stroke-dasharray:2.0,2.0;" x1="820" x2="1033" y1="529.0137" y2="529.0137"/><text fill="#000000" font-family="sans-serif" font-size="13" lengthAdjust="spacing" textLength="190" x="832" y="524.2715">Notify success state with data</text><polygon fill="#181818" points="512.5,554.3242,502.5,558.3242,512.5,562.3242,508.5,558.3242" style="stroke:#181818;stroke-width:1.0;"/><line style="stroke:#181818;stroke-width:1.0;stroke-dasharray:2.0,2.0;" x1="506.5" x2="804" y1="558.3242" y2="558.3242"/><text fill="#000000" font-family="sans-serif" font-size="13" lengthAdjust="spacing" textLength="127" x="518.5" y="553.582">notify data available</text><line style="stroke:#181818;stroke-width:1.0;" x1="501.5" x2="543.5" y1="587.6348" y2="587.6348"/><line style="stroke:#181818;stroke-width:1.0;" x1="543.5" x2="543.5" y1="587.6348" y2="600.6348"/><line style="stroke:#181818;stroke-width:1.0;" x1="502.5" x2="543.5" y1="600.6348" y2="600.6348"/><polygon fill="#181818" points="512.5,596.6348,502.5,600.6348,512.5,604.6348,508.5,600.6348" style="stroke:#181818;stroke-width:1.0;"/><text fill="#000000" font-family="sans-serif" font-size="13" lengthAdjust="spacing" textLength="91" x="508.5" y="582.8926">rebuild Widget</text><polygon fill="#181818" points="34.5,625.9453,24.5,629.9453,34.5,633.9453,30.5,629.9453" style="stroke:#181818;stroke-width:1.0;"/><line style="stroke:#181818;stroke-width:1.0;stroke-dasharray:2.0,2.0;" x1="28.5" x2="495.5" y1="629.9453" y2="629.9453"/><text fill="#000000" font-family="sans-serif" font-size="13" lengthAdjust="spacing" textLength="221" x="40.5" y="625.2031">Display search result on result grid</text><rect fill="#EEEEEE" height="3" style="stroke:#EEEEEE;stroke-width:1.0;" width="1424" x="0" y="658.6006"/><line style="stroke:#000000;stroke-width:1.0;" x1="0" x2="1424" y1="658.6006" y2="658.6006"/><line style="stroke:#000000;stroke-width:1.0;" x1="0" x2="1424" y1="661.6006" y2="661.6006"/><rect fill="#EEEEEE" height="23.3105" style="stroke:#000000;stroke-width:2.0;" width="294" x="565" y="647.9453"/><text fill="#000000" font-family="sans-serif" font-size="13" font-weight="bold" lengthAdjust="spacing" textLength="276" x="571" y="664.5137">seq 3.2 check RecipeDetails from seq 3.1</text><polygon fill="#181818" points="484.5,698.5664,494.5,702.5664,484.5,706.5664,488.5,702.5664" style="stroke:#181818;stroke-width:1.0;"/><line style="stroke:#181818;stroke-width:1.0;" x1="23.5" x2="490.5" y1="702.5664" y2="702.5664"/><text fill="#000000" font-family="sans-serif" font-size="13" lengthAdjust="spacing" textLength="127" x="30.5" y="697.8242">click a recipe on list</text><polygon fill="#181818" points="705.5,727.877,715.5,731.877,705.5,735.877,709.5,731.877" style="stroke:#181818;stroke-width:1.0;"/><line style="stroke:#181818;stroke-width:1.0;" x1="496.5" x2="711.5" y1="731.877" y2="731.877"/><text fill="#000000" font-family="sans-serif" font-size="13" lengthAdjust="spacing" textLength="197" x="503.5" y="727.1348">transition to recipe DetailsPage</text><!--SRC=[VLJ1Rjim3BtxAtZS3YcmxMOi1OfcMtVOLYJPUcPanXQcIAv4f-ZVZueTMtANw6BxMO_YUnJ9cWt1XfxXqmsi2Ij0Oy2JqYq5S7j0KCXKE_zQe6BduNSWNxJeMSiUj0mFxa0RvObi1jyFj4UiAVkn8aPjmXjS0jzZoB4rjIveZgUdy5shbT5aEKEt3VqWD66rAvPB22TD7-HfIF6e0fnDCeRbieY2O76Re2L8TFLtud3J7NPMiexi4JKwS974aXYfw1BOevNijP3OvOQ8b_eeG8w2h1I88GTRIdX2LWtKnEk-Efl6UVwr7_TxTzILr2O66SEVJOLX3TyI-3OnjvJtvuu2fvKVwtxcZa6Jga2o9XWMQU9huivRk0klLlr1qz6DSLXfMxzxd_77tDuO-TEntelXFGq2oz-CEZSjfujJBt2llUeCUl6fzXJ2TrjfaUZyDGtZHIlXAqNxAsG4Z4eQxwphWiaz60anY-b2bl2mtJx2jo_RizCPQzeuFtLDeNKsqAL35lCodgoEMVxNsi-BHRP_C3PqIeablR7mehd9GrHqhVQNwsRxyBrfH-aVt9b9olMYUTfrsbJmf2kvynT8_JNp9QnqQ0sA4a8lPP82TuPZjmvljTTLCPDoxeq4ohfncY8VGJKa0w7ll660mTwxmpXcaa6Iw-X72GwT5LCwpOsv-6GgpWV7m4ns_0C0]--></g></svg>