<?xml version="1.0" encoding="us-ascii" standalone="no"?><svg xmlns="http://www.w3.org/2000/svg" xmlns:xlink="http://www.w3.org/1999/xlink" contentStyleType="text/css" height="1325px" preserveAspectRatio="none" style="width:1355px;height:1325px;background:#FFFFFF;" version="1.1" viewBox="0 0 1355 1325" width="1355px" zoomAndPan="magnify"><defs/><g><text fill="#000000" font-family="sans-serif" font-size="14" font-weight="bold" lengthAdjust="spacing" textLength="145" x="601" y="28.5352">Seq 2. Search Recipe</text><rect fill="#FFFFFF" height="436.3477" style="stroke:#181818;stroke-width:1.0;" width="10" x="458.5" y="252.2188"/><rect fill="#FFFFFF" height="436.3477" style="stroke:#181818;stroke-width:1.0;" width="10" x="458.5" y="790.498"/><rect fill="#FFFFFF" height="407.0371" style="stroke:#181818;stroke-width:1.0;" width="10" x="719.5" y="281.5293"/><rect fill="#FFFFFF" height="407.0371" style="stroke:#181818;stroke-width:1.0;" width="10" x="719.5" y="819.8086"/><rect fill="#FFFFFF" height="247.4844" style="stroke:#181818;stroke-width:1.0;" width="10" x="953" y="340.1504"/><rect fill="#FFFFFF" height="247.4844" style="stroke:#181818;stroke-width:1.0;" width="10" x="953" y="878.4297"/><line style="stroke:#181818;stroke-width:0.5;stroke-dasharray:5.0,5.0;" x1="23" x2="23" y1="118.9766" y2="1244.8457"/><line style="stroke:#181818;stroke-width:0.5;stroke-dasharray:5.0,5.0;" x1="275.5" x2="275.5" y1="118.9766" y2="1244.8457"/><line style="stroke:#181818;stroke-width:0.5;stroke-dasharray:5.0,5.0;" x1="463.5" x2="463.5" y1="118.9766" y2="1244.8457"/><line style="stroke:#181818;stroke-width:0.5;stroke-dasharray:5.0,5.0;" x1="724.5" x2="724.5" y1="118.9766" y2="1244.8457"/><line style="stroke:#181818;stroke-width:0.5;stroke-dasharray:5.0,5.0;" x1="837.5" x2="837.5" y1="118.9766" y2="1244.8457"/><line style="stroke:#181818;stroke-width:0.5;stroke-dasharray:5.0,5.0;" x1="957.5" x2="957.5" y1="118.9766" y2="1244.8457"/><line style="stroke:#181818;stroke-width:0.5;stroke-dasharray:5.0,5.0;" x1="1155" x2="1155" y1="118.9766" y2="1244.8457"/><line style="stroke:#181818;stroke-width:0.5;stroke-dasharray:5.0,5.0;" x1="1294" x2="1294" y1="118.9766" y2="1244.8457"/><text fill="#000000" font-family="sans-serif" font-size="14" lengthAdjust="spacing" textLength="31" x="5" y="116.0234">User</text><ellipse cx="23.5" cy="50.9883" fill="#E2E2F0" rx="8" ry="8" style="stroke:#181818;stroke-width:0.5;"/><path d="M23.5,58.9883 L23.5,85.9883 M10.5,66.9883 L36.5,66.9883 M23.5,85.9883 L10.5,100.9883 M23.5,85.9883 L36.5,100.9883 " fill="none" style="stroke:#181818;stroke-width:0.5;"/><text fill="#000000" font-family="sans-serif" font-size="14" lengthAdjust="spacing" textLength="31" x="5" y="1257.3809">User</text><ellipse cx="23.5" cy="1268.834" fill="#E2E2F0" rx="8" ry="8" style="stroke:#181818;stroke-width:0.5;"/><path d="M23.5,1276.834 L23.5,1303.834 M10.5,1284.834 L36.5,1284.834 M23.5,1303.834 L10.5,1318.834 M23.5,1303.834 L36.5,1318.834 " fill="none" style="stroke:#181818;stroke-width:0.5;"/><rect fill="#E2E2F0" height="30.4883" rx="2.5" ry="2.5" style="stroke:#181818;stroke-width:0.5;" width="100" x="225.5" y="87.4883"/><text fill="#000000" font-family="sans-serif" font-size="14" lengthAdjust="spacing" textLength="86" x="232.5" y="108.0234">HomeScreen</text><rect fill="#E2E2F0" height="30.4883" rx="2.5" ry="2.5" style="stroke:#181818;stroke-width:0.5;" width="100" x="225.5" y="1243.8457"/><text fill="#000000" font-family="sans-serif" font-size="14" lengthAdjust="spacing" textLength="86" x="232.5" y="1264.3809">HomeScreen</text><rect fill="#E2E2F0" height="30.4883" rx="2.5" ry="2.5" style="stroke:#181818;stroke-width:0.5;" width="106" x="410.5" y="87.4883"/><text fill="#000000" font-family="sans-serif" font-size="14" lengthAdjust="spacing" textLength="92" x="417.5" y="108.0234">SearchScreen</text><rect fill="#E2E2F0" height="30.4883" rx="2.5" ry="2.5" style="stroke:#181818;stroke-width:0.5;" width="106" x="410.5" y="1243.8457"/><text fill="#000000" font-family="sans-serif" font-size="14" lengthAdjust="spacing" textLength="92" x="417.5" y="1264.3809">SearchScreen</text><rect fill="#E2E2F0" height="30.4883" rx="2.5" ry="2.5" style="stroke:#181818;stroke-width:0.5;" width="72" x="688.5" y="87.4883"/><text fill="#000000" font-family="sans-serif" font-size="14" lengthAdjust="spacing" textLength="58" x="695.5" y="108.0234">UseCase</text><rect fill="#E2E2F0" height="30.4883" rx="2.5" ry="2.5" style="stroke:#181818;stroke-width:0.5;" width="72" x="688.5" y="1243.8457"/><text fill="#000000" font-family="sans-serif" font-size="14" lengthAdjust="spacing" textLength="58" x="695.5" y="1264.3809">UseCase</text><rect fill="#E2E2F0" height="30.4883" rx="2.5" ry="2.5" style="stroke:#181818;stroke-width:0.5;" width="134" x="770.5" y="87.4883"/><text fill="#000000" font-family="sans-serif" font-size="14" lengthAdjust="spacing" textLength="120" x="777.5" y="108.0234">CommonProvider</text><rect fill="#E2E2F0" height="30.4883" rx="2.5" ry="2.5" style="stroke:#181818;stroke-width:0.5;" width="134" x="770.5" y="1243.8457"/><text fill="#000000" font-family="sans-serif" font-size="14" lengthAdjust="spacing" textLength="120" x="777.5" y="1264.3809">CommonProvider</text><rect fill="#E2E2F0" height="30.4883" rx="2.5" ry="2.5" style="stroke:#181818;stroke-width:0.5;" width="87" x="914.5" y="87.4883"/><text fill="#000000" font-family="sans-serif" font-size="14" lengthAdjust="spacing" textLength="73" x="921.5" y="108.0234">Repository</text><rect fill="#E2E2F0" height="30.4883" rx="2.5" ry="2.5" style="stroke:#181818;stroke-width:0.5;" width="87" x="914.5" y="1243.8457"/><text fill="#000000" font-family="sans-serif" font-size="14" lengthAdjust="spacing" textLength="73" x="921.5" y="1264.3809">Repository</text><rect fill="#E2E2F0" height="30.4883" rx="2.5" ry="2.5" style="stroke:#181818;stroke-width:0.5;" width="74" x="1118" y="87.4883"/><text fill="#000000" font-family="sans-serif" font-size="14" lengthAdjust="spacing" textLength="60" x="1125" y="108.0234">Apiclient</text><rect fill="#E2E2F0" height="30.4883" rx="2.5" ry="2.5" style="stroke:#181818;stroke-width:0.5;" width="74" x="1118" y="1243.8457"/><text fill="#000000" font-family="sans-serif" font-size="14" lengthAdjust="spacing" textLength="60" x="1125" y="1264.3809">Apiclient</text><rect fill="#E2E2F0" height="30.4883" rx="2.5" ry="2.5" style="stroke:#181818;stroke-width:0.5;" width="98" x="1245" y="87.4883"/><text fill="#000000" font-family="sans-serif" font-size="14" lengthAdjust="spacing" textLength="84" x="1252" y="108.0234">TheMealsDb</text><rect fill="#E2E2F0" height="30.4883" rx="2.5" ry="2.5" style="stroke:#181818;stroke-width:0.5;" width="98" x="1245" y="1243.8457"/><text fill="#000000" font-family="sans-serif" font-size="14" lengthAdjust="spacing" textLength="84" x="1252" y="1264.3809">TheMealsDb</text><rect fill="#FFFFFF" height="436.3477" style="stroke:#181818;stroke-width:1.0;" width="10" x="458.5" y="252.2188"/><rect fill="#FFFFFF" height="436.3477" style="stroke:#181818;stroke-width:1.0;" width="10" x="458.5" y="790.498"/><rect fill="#FFFFFF" height="407.0371" style="stroke:#181818;stroke-width:1.0;" width="10" x="719.5" y="281.5293"/><rect fill="#FFFFFF" height="407.0371" style="stroke:#181818;stroke-width:1.0;" width="10" x="719.5" y="819.8086"/><rect fill="#FFFFFF" height="247.4844" style="stroke:#181818;stroke-width:1.0;" width="10" x="953" y="340.1504"/><rect fill="#FFFFFF" height="247.4844" style="stroke:#181818;stroke-width:1.0;" width="10" x="953" y="878.4297"/><rect fill="#EEEEEE" height="3" style="stroke:#EEEEEE;stroke-width:1.0;" width="1348" x="0" y="149.6318"/><line style="stroke:#000000;stroke-width:1.0;" x1="0" x2="1348" y1="149.6318" y2="149.6318"/><line style="stroke:#000000;stroke-width:1.0;" x1="0" x2="1348" y1="152.6318" y2="152.6318"/><rect fill="#EEEEEE" height="23.3105" style="stroke:#000000;stroke-width:2.0;" width="254" x="547" y="138.9766"/><text fill="#000000" font-family="sans-serif" font-size="13" font-weight="bold" lengthAdjust="spacing" textLength="236" x="553" y="155.5449">Submit Keyword From HomeScreen</text><polygon fill="#181818" points="263.5,189.5977,273.5,193.5977,263.5,197.5977,267.5,193.5977" style="stroke:#181818;stroke-width:1.0;"/><line style="stroke:#181818;stroke-width:1.0;" x1="23.5" x2="269.5" y1="193.5977" y2="193.5977"/><text fill="#000000" font-family="sans-serif" font-size="13" lengthAdjust="spacing" textLength="228" x="30.5" y="188.8555">submit keyword on Search TextField</text><polygon fill="#181818" points="825.5,218.9082,835.5,222.9082,825.5,226.9082,829.5,222.9082" style="stroke:#181818;stroke-width:1.0;"/><line style="stroke:#181818;stroke-width:1.0;" x1="275.5" x2="831.5" y1="222.9082" y2="222.9082"/><text fill="#000000" font-family="sans-serif" font-size="13" lengthAdjust="spacing" textLength="186" x="282.5" y="218.166">update state keywordProvider</text><polygon fill="#181818" points="446.5,248.2188,456.5,252.2188,446.5,256.2188,450.5,252.2188" style="stroke:#181818;stroke-width:1.0;"/><line style="stroke:#181818;stroke-width:1.0;" x1="275.5" x2="452.5" y1="252.2188" y2="252.2188"/><text fill="#000000" font-family="sans-serif" font-size="13" lengthAdjust="spacing" textLength="164" x="282.5" y="247.4766">transition to SearchScreen</text><polygon fill="#181818" points="707.5,277.5293,717.5,281.5293,707.5,285.5293,711.5,281.5293" style="stroke:#181818;stroke-width:1.0;"/><line style="stroke:#181818;stroke-width:1.0;" x1="468.5" x2="713.5" y1="281.5293" y2="281.5293"/><text fill="#000000" font-family="sans-serif" font-size="13" lengthAdjust="spacing" textLength="232" x="475.5" y="276.7871">Watch searchRecipesByNameProvider</text><polygon fill="#181818" points="825.5,306.8398,835.5,310.8398,825.5,314.8398,829.5,310.8398" style="stroke:#181818;stroke-width:1.0;"/><line style="stroke:#181818;stroke-width:1.0;" x1="729.5" x2="831.5" y1="310.8398" y2="310.8398"/><text fill="#000000" font-family="sans-serif" font-size="13" lengthAdjust="spacing" textLength="84" x="736.5" y="306.0977">read keyword</text><line style="stroke:#181818;stroke-width:1.0;" x1="951" x2="941" y1="340.1504" y2="336.1504"/><line style="stroke:#181818;stroke-width:1.0;" x1="951" x2="941" y1="340.1504" y2="344.1504"/><line style="stroke:#181818;stroke-width:1.0;" x1="729.5" x2="952" y1="340.1504" y2="340.1504"/><text fill="#000000" font-family="sans-serif" font-size="13" lengthAdjust="spacing" textLength="81" x="736.5" y="335.4082">Request data</text><polygon fill="#181818" points="740.5,365.4609,730.5,369.4609,740.5,373.4609,736.5,369.4609" style="stroke:#181818;stroke-width:1.0;"/><line style="stroke:#181818;stroke-width:1.0;stroke-dasharray:2.0,2.0;" x1="734.5" x2="952" y1="369.4609" y2="369.4609"/><text fill="#000000" font-family="sans-serif" font-size="13" lengthAdjust="spacing" textLength="176" x="746.5" y="364.7188">Return AsyncValue.loading()</text><polygon fill="#181818" points="479.5,394.7715,469.5,398.7715,479.5,402.7715,475.5,398.7715" style="stroke:#181818;stroke-width:1.0;"/><line style="stroke:#181818;stroke-width:1.0;stroke-dasharray:2.0,2.0;" x1="473.5" x2="718.5" y1="398.7715" y2="398.7715"/><text fill="#000000" font-family="sans-serif" font-size="13" lengthAdjust="spacing" textLength="125" x="485.5" y="394.0293">Notify loading state</text><line style="stroke:#181818;stroke-width:1.0;" x1="468.5" x2="510.5" y1="428.082" y2="428.082"/><line style="stroke:#181818;stroke-width:1.0;" x1="510.5" x2="510.5" y1="428.082" y2="441.082"/><line style="stroke:#181818;stroke-width:1.0;" x1="469.5" x2="510.5" y1="441.082" y2="441.082"/><polygon fill="#181818" points="479.5,437.082,469.5,441.082,479.5,445.082,475.5,441.082" style="stroke:#181818;stroke-width:1.0;"/><text fill="#000000" font-family="sans-serif" font-size="13" lengthAdjust="spacing" textLength="196" x="475.5" y="423.3398">Show CircularProgressIndicator</text><polygon fill="#181818" points="1143,466.3926,1153,470.3926,1143,474.3926,1147,470.3926" style="stroke:#181818;stroke-width:1.0;"/><line style="stroke:#181818;stroke-width:1.0;stroke-dasharray:2.0,2.0;" x1="963" x2="1149" y1="470.3926" y2="470.3926"/><text fill="#000000" font-family="sans-serif" font-size="13" lengthAdjust="spacing" textLength="168" x="970" y="465.6504">Fetch data asynchronously</text><polygon fill="#181818" points="1282,495.7031,1292,499.7031,1282,503.7031,1286,499.7031" style="stroke:#181818;stroke-width:1.0;"/><line style="stroke:#181818;stroke-width:1.0;" x1="1155" x2="1288" y1="499.7031" y2="499.7031"/><text fill="#000000" font-family="sans-serif" font-size="13" lengthAdjust="spacing" textLength="115" x="1162" y="494.9609">HTTP GET Request</text><polygon fill="#181818" points="1166,525.0137,1156,529.0137,1166,533.0137,1162,529.0137" style="stroke:#181818;stroke-width:1.0;"/><line style="stroke:#181818;stroke-width:1.0;stroke-dasharray:2.0,2.0;" x1="1160" x2="1293" y1="529.0137" y2="529.0137"/><text fill="#000000" font-family="sans-serif" font-size="13" lengthAdjust="spacing" textLength="60" x="1172" y="524.2715">Response</text><polygon fill="#181818" points="974,554.3242,964,558.3242,974,562.3242,970,558.3242" style="stroke:#181818;stroke-width:1.0;"/><line style="stroke:#181818;stroke-width:1.0;stroke-dasharray:2.0,2.0;" x1="968" x2="1154" y1="558.3242" y2="558.3242"/><text fill="#000000" font-family="sans-serif" font-size="13" lengthAdjust="spacing" textLength="72" x="980" y="553.582">Return data</text><polygon fill="#181818" points="740.5,583.6348,730.5,587.6348,740.5,591.6348,736.5,587.6348" style="stroke:#181818;stroke-width:1.0;"/><line style="stroke:#181818;stroke-width:1.0;stroke-dasharray:2.0,2.0;" x1="734.5" x2="957" y1="587.6348" y2="587.6348"/><text fill="#000000" font-family="sans-serif" font-size="13" lengthAdjust="spacing" textLength="190" x="746.5" y="582.8926">Notify success state with data</text><polygon fill="#181818" points="479.5,612.9453,469.5,616.9453,479.5,620.9453,475.5,616.9453" style="stroke:#181818;stroke-width:1.0;"/><line style="stroke:#181818;stroke-width:1.0;stroke-dasharray:2.0,2.0;" x1="473.5" x2="718.5" y1="616.9453" y2="616.9453"/><text fill="#000000" font-family="sans-serif" font-size="13" lengthAdjust="spacing" textLength="127" x="485.5" y="612.2031">notify data available</text><line style="stroke:#181818;stroke-width:1.0;" x1="468.5" x2="510.5" y1="646.2559" y2="646.2559"/><line style="stroke:#181818;stroke-width:1.0;" x1="510.5" x2="510.5" y1="646.2559" y2="659.2559"/><line style="stroke:#181818;stroke-width:1.0;" x1="469.5" x2="510.5" y1="659.2559" y2="659.2559"/><polygon fill="#181818" points="479.5,655.2559,469.5,659.2559,479.5,663.2559,475.5,659.2559" style="stroke:#181818;stroke-width:1.0;"/><text fill="#000000" font-family="sans-serif" font-size="13" lengthAdjust="spacing" textLength="91" x="475.5" y="641.5137">rebuild Widget</text><polygon fill="#181818" points="34.5,684.5664,24.5,688.5664,34.5,692.5664,30.5,688.5664" style="stroke:#181818;stroke-width:1.0;"/><line style="stroke:#181818;stroke-width:1.0;stroke-dasharray:2.0,2.0;" x1="28.5" x2="462.5" y1="688.5664" y2="688.5664"/><text fill="#000000" font-family="sans-serif" font-size="13" lengthAdjust="spacing" textLength="221" x="40.5" y="683.8242">Display search result on result grid</text><rect fill="#EEEEEE" height="3" style="stroke:#EEEEEE;stroke-width:1.0;" width="1348" x="0" y="717.2217"/><line style="stroke:#000000;stroke-width:1.0;" x1="0" x2="1348" y1="717.2217" y2="717.2217"/><line style="stroke:#000000;stroke-width:1.0;" x1="0" x2="1348" y1="720.2217" y2="720.2217"/><rect fill="#EEEEEE" height="23.3105" style="stroke:#000000;stroke-width:2.0;" width="243" x="552.5" y="706.5664"/><text fill="#000000" font-family="sans-serif" font-size="13" font-weight="bold" lengthAdjust="spacing" textLength="225" x="558.5" y="723.1348">Submit Keyword on SearchScreen</text><polygon fill="#181818" points="451.5,757.1875,461.5,761.1875,451.5,765.1875,455.5,761.1875" style="stroke:#181818;stroke-width:1.0;"/><line style="stroke:#181818;stroke-width:1.0;" x1="23.5" x2="457.5" y1="761.1875" y2="761.1875"/><text fill="#000000" font-family="sans-serif" font-size="13" lengthAdjust="spacing" textLength="228" x="30.5" y="756.4453">submit keyword on Search TextField</text><polygon fill="#181818" points="825.5,786.498,835.5,790.498,825.5,794.498,829.5,790.498" style="stroke:#181818;stroke-width:1.0;"/><line style="stroke:#181818;stroke-width:1.0;" x1="468.5" x2="831.5" y1="790.498" y2="790.498"/><text fill="#000000" font-family="sans-serif" font-size="13" lengthAdjust="spacing" textLength="186" x="475.5" y="785.7559">update state keywordProvider</text><polygon fill="#181818" points="707.5,815.8086,717.5,819.8086,707.5,823.8086,711.5,819.8086" style="stroke:#181818;stroke-width:1.0;"/><line style="stroke:#181818;stroke-width:1.0;" x1="468.5" x2="713.5" y1="819.8086" y2="819.8086"/><text fill="#000000" font-family="sans-serif" font-size="13" lengthAdjust="spacing" textLength="232" x="475.5" y="815.0664">Watch searchRecipesByNameProvider</text><polygon fill="#181818" points="825.5,845.1191,835.5,849.1191,825.5,853.1191,829.5,849.1191" style="stroke:#181818;stroke-width:1.0;"/><line style="stroke:#181818;stroke-width:1.0;" x1="729.5" x2="831.5" y1="849.1191" y2="849.1191"/><text fill="#000000" font-family="sans-serif" font-size="13" lengthAdjust="spacing" textLength="84" x="736.5" y="844.377">read keyword</text><line style="stroke:#181818;stroke-width:1.0;" x1="951" x2="941" y1="878.4297" y2="874.4297"/><line style="stroke:#181818;stroke-width:1.0;" x1="951" x2="941" y1="878.4297" y2="882.4297"/><line style="stroke:#181818;stroke-width:1.0;" x1="729.5" x2="952" y1="878.4297" y2="878.4297"/><text fill="#000000" font-family="sans-serif" font-size="13" lengthAdjust="spacing" textLength="81" x="736.5" y="873.6875">Request data</text><polygon fill="#181818" points="740.5,903.7402,730.5,907.7402,740.5,911.7402,736.5,907.7402" style="stroke:#181818;stroke-width:1.0;"/><line style="stroke:#181818;stroke-width:1.0;stroke-dasharray:2.0,2.0;" x1="734.5" x2="952" y1="907.7402" y2="907.7402"/><text fill="#000000" font-family="sans-serif" font-size="13" lengthAdjust="spacing" textLength="176" x="746.5" y="902.998">Return AsyncValue.loading()</text><polygon fill="#181818" points="479.5,933.0508,469.5,937.0508,479.5,941.0508,475.5,937.0508" style="stroke:#181818;stroke-width:1.0;"/><line style="stroke:#181818;stroke-width:1.0;stroke-dasharray:2.0,2.0;" x1="473.5" x2="718.5" y1="937.0508" y2="937.0508"/><text fill="#000000" font-family="sans-serif" font-size="13" lengthAdjust="spacing" textLength="125" x="485.5" y="932.3086">Notify loading state</text><line style="stroke:#181818;stroke-width:1.0;" x1="468.5" x2="510.5" y1="966.3613" y2="966.3613"/><line style="stroke:#181818;stroke-width:1.0;" x1="510.5" x2="510.5" y1="966.3613" y2="979.3613"/><line style="stroke:#181818;stroke-width:1.0;" x1="469.5" x2="510.5" y1="979.3613" y2="979.3613"/><polygon fill="#181818" points="479.5,975.3613,469.5,979.3613,479.5,983.3613,475.5,979.3613" style="stroke:#181818;stroke-width:1.0;"/><text fill="#000000" font-family="sans-serif" font-size="13" lengthAdjust="spacing" textLength="196" x="475.5" y="961.6191">Show CircularProgressIndicator</text><polygon fill="#181818" points="1143,1004.6719,1153,1008.6719,1143,1012.6719,1147,1008.6719" style="stroke:#181818;stroke-width:1.0;"/><line style="stroke:#181818;stroke-width:1.0;stroke-dasharray:2.0,2.0;" x1="963" x2="1149" y1="1008.6719" y2="1008.6719"/><text fill="#000000" font-family="sans-serif" font-size="13" lengthAdjust="spacing" textLength="168" x="970" y="1003.9297">Fetch data asynchronously</text><polygon fill="#181818" points="1282,1033.9824,1292,1037.9824,1282,1041.9824,1286,1037.9824" style="stroke:#181818;stroke-width:1.0;"/><line style="stroke:#181818;stroke-width:1.0;" x1="1155" x2="1288" y1="1037.9824" y2="1037.9824"/><text fill="#000000" font-family="sans-serif" font-size="13" lengthAdjust="spacing" textLength="115" x="1162" y="1033.2402">HTTP GET Request</text><polygon fill="#181818" points="1166,1063.293,1156,1067.293,1166,1071.293,1162,1067.293" style="stroke:#181818;stroke-width:1.0;"/><line style="stroke:#181818;stroke-width:1.0;stroke-dasharray:2.0,2.0;" x1="1160" x2="1293" y1="1067.293" y2="1067.293"/><text fill="#000000" font-family="sans-serif" font-size="13" lengthAdjust="spacing" textLength="60" x="1172" y="1062.5508">Response</text><polygon fill="#181818" points="974,1092.6035,964,1096.6035,974,1100.6035,970,1096.6035" style="stroke:#181818;stroke-width:1.0;"/><line style="stroke:#181818;stroke-width:1.0;stroke-dasharray:2.0,2.0;" x1="968" x2="1154" y1="1096.6035" y2="1096.6035"/><text fill="#000000" font-family="sans-serif" font-size="13" lengthAdjust="spacing" textLength="72" x="980" y="1091.8613">Return data</text><polygon fill="#181818" points="740.5,1121.9141,730.5,1125.9141,740.5,1129.9141,736.5,1125.9141" style="stroke:#181818;stroke-width:1.0;"/><line style="stroke:#181818;stroke-width:1.0;stroke-dasharray:2.0,2.0;" x1="734.5" x2="957" y1="1125.9141" y2="1125.9141"/><text fill="#000000" font-family="sans-serif" font-size="13" lengthAdjust="spacing" textLength="190" x="746.5" y="1121.1719">Notify success state with data</text><polygon fill="#181818" points="479.5,1151.2246,469.5,1155.2246,479.5,1159.2246,475.5,1155.2246" style="stroke:#181818;stroke-width:1.0;"/><line style="stroke:#181818;stroke-width:1.0;stroke-dasharray:2.0,2.0;" x1="473.5" x2="718.5" y1="1155.2246" y2="1155.2246"/><text fill="#000000" font-family="sans-serif" font-size="13" lengthAdjust="spacing" textLength="127" x="485.5" y="1150.4824">notify data available</text><line style="stroke:#181818;stroke-width:1.0;" x1="468.5" x2="510.5" y1="1184.5352" y2="1184.5352"/><line style="stroke:#181818;stroke-width:1.0;" x1="510.5" x2="510.5" y1="1184.5352" y2="1197.5352"/><line style="stroke:#181818;stroke-width:1.0;" x1="469.5" x2="510.5" y1="1197.5352" y2="1197.5352"/><polygon fill="#181818" points="479.5,1193.5352,469.5,1197.5352,479.5,1201.5352,475.5,1197.5352" style="stroke:#181818;stroke-width:1.0;"/><text fill="#000000" font-family="sans-serif" font-size="13" lengthAdjust="spacing" textLength="91" x="475.5" y="1179.793">rebuild Widget</text><polygon fill="#181818" points="34.5,1222.8457,24.5,1226.8457,34.5,1230.8457,30.5,1226.8457" style="stroke:#181818;stroke-width:1.0;"/><line style="stroke:#181818;stroke-width:1.0;stroke-dasharray:2.0,2.0;" x1="28.5" x2="462.5" y1="1226.8457" y2="1226.8457"/><text fill="#000000" font-family="sans-serif" font-size="13" lengthAdjust="spacing" textLength="221" x="40.5" y="1222.1035">Display search result on result grid</text><!--SRC=[xLJBRjim4BpxA_RO7fH3Zq8S87NYf2WQ1BRQd6bnQorAaGeVTlNt9QE7ISKsscC1ys1BAyvoPsQvbgn0MEChVBhoVqoN5Qomf0PdhBHAmtU3UjOmRSa7cRJmg6fSbnfH9k4EU-I3Jx1W1fFOGjMraizQxOXFqg-mKORyoMqIlcse58JI9j6Ymc_8XBdRpEPpMBjDJHQ-OhjNciDIgpgg5kRpMI03sKqKpS5qg5yzIib1XW9_soMXuBCeYGUdnUVW6iuiWh7XjqypKakXiKWvMCsafqh-IAjI0Rtsj0lvaYZu5GT2obxU75wOzKMRjy-TW-Pp-yHg76i9y37nO0lqgty_Hb0ZumEn8_jl8izo__pgq5Zmch1nytXgv2v4wn26BEQqGkkqX5lJol874mwlX6ASvFR3nmG_5lDEuoTbwMSBFQmpAO5EzKpXwqhjOK6wT89fhyXMep5V9AUI-MhFSHWRDeSb1cU28C02aqehgPmHgGOZ85HnQEmS7elY6HxkYq7Q17NOE3rrXQPHqk2fGxAfRszI9xR5qbvdMRA_5zQuilIIzDs_9rkbAJYUy_wqRx9BtucsOoJOHXoed3TDuyQHuF12V8ls1AXhCz_TTsGQmTh-vdYmSSA6CT0_RJLrNHzH6IvF54ekwf5fDCwLzzCehVulvj6K_ZzDfCjekOoMosZvNqVB7m00]--></g></svg>